<?xml version="1.0" encoding="UTF-8"?>
<svg version="1.1" xmlns="http://www.w3.org/2000/svg" width="500" height="500">
<path d="M0 0 C3.77431725 1.47412538 7.26597768 3.15945751 10.8125 5.125 C12.27623047 5.93324219 12.27623047 5.93324219 13.76953125 6.7578125 C14.87361328 7.37269531 14.87361328 7.37269531 16 8 C17.30324219 7.11634766 17.30324219 7.11634766 18.6328125 6.21484375 C19.79628879 5.45483101 20.96038452 4.69576595 22.125 3.9375 C22.69476563 3.54755859 23.26453125 3.15761719 23.8515625 2.75585938 C26.72203879 0.91288312 28.62437259 -0.00383293 32.0625 0.03125 C35.40068946 1.13214227 37.95778408 2.60583079 40.875 4.5625 C41.84179688 5.20316406 42.80859375 5.84382813 43.8046875 6.50390625 C44.52914062 6.99761719 45.25359375 7.49132812 46 8 C46.95261719 7.41089844 47.90523437 6.82179688 48.88671875 6.21484375 C50.15318651 5.4549631 51.42013941 4.69589061 52.6875 3.9375 C53.31333984 3.54755859 53.93917969 3.15761719 54.58398438 2.75585938 C57.35532249 1.11627191 59.386337 -0.01357662 62.6484375 0.05859375 C65.33804181 1.13532903 67.54168951 2.4975142 69.9375 4.125 C73.73577043 6.45869418 73.73577043 6.45869418 78.0625 7.25 C80.8959745 6.04426617 82.99817261 4.64834188 85.5 2.875 C89.62760203 0.03169344 89.62760203 0.03169344 92.9375 -0.25 C96.79295192 1.32365385 100.10514547 3.46861474 103.53515625 5.8203125 C106.61698264 7.29529122 107.80513666 7.11820217 111 6 C113.55474264 4.50197341 115.96279908 2.85759937 118.40234375 1.1796875 C121.81368934 -0.36952509 123.42573398 -0.04645811 127 1 C130.2109375 2.62890625 130.2109375 2.62890625 133.375 4.5625 C134.43460938 5.20316406 135.49421875 5.84382813 136.5859375 6.50390625 C137.38257813 6.99761719 138.17921875 7.49132812 139 8 C139.86882812 7.41089844 140.73765625 6.82179688 141.6328125 6.21484375 C142.79628879 5.45483101 143.96038452 4.69576595 145.125 3.9375 C145.97964844 3.35258789 145.97964844 3.35258789 146.8515625 2.75585938 C149.70641925 0.92291158 151.61160095 -0.00400411 155.03125 0.03125 C158.47354984 1.15452679 161.28625916 2.67493615 164.375 4.5625 C165.43460938 5.20316406 166.49421875 5.84382813 167.5859375 6.50390625 C168.38257813 6.99761719 169.17921875 7.49132812 170 8 C170.88042969 7.41089844 171.76085937 6.82179688 172.66796875 6.21484375 C173.84064218 5.45495136 175.0138476 4.69587949 176.1875 3.9375 C176.76564453 3.54755859 177.34378906 3.15761719 177.93945312 2.75585938 C180.53675307 1.09769614 182.40818033 -0.00730642 185.53125 0.03125 C188.6650397 1.26096495 191.43151896 2.82124772 194.3125 4.5625 C195.91544922 5.52349609 195.91544922 5.52349609 197.55078125 6.50390625 C198.35902344 6.99761719 199.16726563 7.49132812 200 8 C200.95261719 7.41089844 201.90523437 6.82179688 202.88671875 6.21484375 C204.15318651 5.4549631 205.42013941 4.69589061 206.6875 3.9375 C207.31333984 3.54755859 207.93917969 3.15761719 208.58398438 2.75585938 C211.35337082 1.11742656 213.38460804 -0.01363498 216.64453125 0.05859375 C220.26209803 1.50442061 223.28808623 3.64223348 226.5 5.8203125 C228.93062694 7.20662816 228.93062694 7.20662816 231.58984375 6.875 C234.93165217 5.66176647 236.78119321 3.65811119 239.25390625 1.1796875 C241 0 241 0 242.96875 0.12109375 C245.35328324 1.15286294 246.97549009 2.48968152 248.9375 4.1875 C251.91501611 6.65405629 251.91501611 6.65405629 255.625 6.6875 C257.56885057 5.30634302 259.28094428 3.88524495 261.0625 2.3125 C264 0 264 0 265.9375 0.15625 C268.3671079 1.15018051 269.95598665 2.47280429 271.9375 4.1875 C274.91501611 6.65405629 274.91501611 6.65405629 278.625 6.6875 C280.56885057 5.30634302 282.28094428 3.88524495 284.0625 2.3125 C287 0 287 0 288.89094645 0.18340725 C293.38466983 1.92330709 296.89977281 4.28904252 300 8 C301.29911542 12.31826395 301.1785505 16.46956847 301.08229065 20.95225525 C301.09382538 22.91520651 301.09382538 22.91520651 301.10559314 24.91781336 C301.12567498 28.54000361 301.08978849 32.15978922 301.04459059 35.78167307 C301.00566834 39.69092292 301.01888058 43.60004078 301.02571106 47.50942993 C301.03042686 54.27914928 301.00222709 61.04808704 300.95157051 67.81760979 C300.87837869 77.60502191 300.85498279 87.3920567 300.84367859 97.17971284 C300.82398829 113.05988275 300.76411439 128.93963623 300.67895508 144.81958008 C300.59632449 160.24403841 300.53273156 175.66838299 300.49438477 191.09301758 C300.49197279 192.05372506 300.48956081 193.01443254 300.48707575 194.00425237 C300.46836058 201.51778738 300.45074839 209.03132487 300.43348467 216.54486334 C300.34860454 253.36362447 300.16753616 290.18134298 300 327 C201 327 102 327 0 327 C-0.71921823 241.6527699 -0.71921823 241.6527699 -0.84375 217.93359375 C-0.84845621 217.04886407 -0.85316242 216.16413438 -0.85801125 215.25259471 C-1.1007646 168.93786616 -0.87177434 122.62638339 -0.5625 76.3125 C-0.55610205 75.35077692 -0.5497041 74.38905384 -0.54311228 73.39818764 C-0.37999674 48.93198488 -0.19990662 24.46592976 0 0 Z " fill="#D89D5D" transform="translate(100,100)"/>
<path d="M0 0 C2.5546875 1.6796875 2.5546875 1.6796875 4.875 3.875 C5.65617187 4.59429687 6.43734375 5.31359375 7.2421875 6.0546875 C9 8 9 8 9 10 C12.02181414 10.10867663 15.03966327 10.18762754 18.0625 10.25 C18.91005859 10.28351563 19.75761719 10.31703125 20.63085938 10.3515625 C26.76320446 10.44627053 29.8445718 9.2441475 35 6 C39.49094601 5.1262251 43.53755188 5.17960228 47.5625 7.4375 C50.16749224 12.08118183 50.51837803 17.00623835 49.1875 22.125 C48.70161 24.92156548 48.70161 24.92156548 50.08984375 26.53515625 C51.16092316 27.68799745 52.23258353 28.84029905 53.3046875 29.9921875 C61.57757959 39.79003666 61.57516808 52.9216205 62.23046875 65.10546875 C62.74685366 74.66346123 64.23401085 82.75385453 67.90234375 91.58984375 C70.1630413 97.19972286 71.77904775 102.88874873 73.25 108.75 C73.51377441 109.79607422 73.77754883 110.84214844 74.04931641 111.91992188 C75.92660557 119.76885938 76.76829654 126.91865857 76 135 C77.35738281 135.40412109 77.35738281 135.40412109 78.7421875 135.81640625 C81.74773432 136.90834952 83.65211851 137.97020764 86.125 139.9375 C86.76695312 140.44152344 87.40890625 140.94554687 88.0703125 141.46484375 C88.70710937 141.97144531 89.34390625 142.47804688 90 143 C92.55112613 145.02025595 94.35844673 146.14337869 97.4375 147.375 C101.26586064 149.12126976 103.45225905 150.65609 106 154 C106.3125 156.4375 106.3125 156.4375 105 159 C101.64094249 162.07603271 98.33631274 164.55456242 94 166 C92.97544943 167.17009954 92.00253108 168.38597685 91.0625 169.625 C80.74021302 181.72176818 63.19522948 186.16031632 48.25 189.25 C47.01918701 189.50668457 45.78837402 189.76336914 44.52026367 190.02783203 C35.2762067 191.88479118 26.43829744 192.95800757 17 193 C15.0624868 193.03707671 13.12498767 193.07489353 11.1875 193.11328125 C-7.45548001 193.38650731 -25.8610808 192.55763248 -44 188 C-45.0209375 187.77441406 -46.041875 187.54882812 -47.09375 187.31640625 C-61.36389105 184.06149006 -74.74072535 178.57988926 -84.171875 167.09765625 C-85.84579865 165.17693616 -87.4338484 163.83771947 -89.5 162.375 C-92 160 -92 160 -92.8125 156.5 C-92 153 -92 153 -88.9375 150.5625 C-88.29554687 150.17191406 -87.65359375 149.78132812 -86.9921875 149.37890625 C-84.74226007 147.82160354 -83.28339501 146.12137979 -81.5625 144 C-76.17978219 137.62225863 -68.8389302 133.72723237 -61 131 C-57.9375 130.75 -57.9375 130.75 -56 131 C-56.33 128.36 -56.66 125.72 -57 123 C-57.886875 122.79375 -58.77375 122.5875 -59.6875 122.375 C-64.53695714 120.36201779 -66.86003907 117.11707031 -69.3125 112.5625 C-70.91647002 106.58406629 -70.14936152 101.53668912 -67.5390625 96.015625 C-64.64095532 92.22013438 -60.3997229 91.36081173 -56 90 C-55.00226563 89.49146484 -55.00226563 89.49146484 -53.984375 88.97265625 C-51.75417862 87.87950881 -49.6790742 87.37510351 -47.25 86.875 C-46.45078125 86.70742187 -45.6515625 86.53984375 -44.828125 86.3671875 C-43.92320312 86.18542969 -43.92320312 86.18542969 -43 86 C-43.45890625 85.31035156 -43.9178125 84.62070313 -44.390625 83.91015625 C-51.78291993 72.58876338 -58.31055513 60.35039127 -55.46484375 46.37109375 C-54.04107171 40.65266506 -52.19008798 35.95013653 -49 31 C-48.34 31 -47.68 31 -47 31 C-46.75121094 30.4121875 -46.50242188 29.824375 -46.24609375 29.21875 C-41.93917258 21.55000009 -32.95649529 18.4002835 -25 16 C-23.55367187 15.55140625 -23.55367187 15.55140625 -22.078125 15.09375 C-19.72401227 14.37554612 -17.36609139 13.67749254 -15 13 C-14.89558594 12.25234375 -14.79117188 11.5046875 -14.68359375 10.734375 C-13.94651782 7.78607129 -13.07837311 6.47781087 -11.0625 4.25 C-10.53785156 3.65703125 -10.01320313 3.0640625 -9.47265625 2.453125 C-6.53768349 -0.4429224 -3.9991189 -0.38320795 0 0 Z " fill="#A46E39" transform="translate(210,169)"/>
<path d="M0 0 C2.27034965 0.99369677 3.86567019 2.35581781 5.73687518 3.97505856 C8.71439128 6.44161485 8.71439128 6.44161485 12.42437518 6.47505856 C14.36822575 5.09390157 16.08031946 3.6728035 17.86187518 2.10005856 C20.79937518 -0.21244144 20.79937518 -0.21244144 22.73687518 -0.05619144 C25.16648308 0.93773906 26.75536183 2.26036284 28.73687518 3.97505856 C31.71439128 6.44161485 31.71439128 6.44161485 35.42437518 6.47505856 C37.36822575 5.09390157 39.08031946 3.6728035 40.86187518 2.10005856 C43.79937518 -0.21244144 43.79937518 -0.21244144 45.69032162 -0.0290342 C50.18404501 1.71086565 53.69914799 4.07660108 56.79937518 7.78755856 C58.0984906 12.1058225 57.97792568 16.25712703 57.88166583 20.7398138 C57.88935565 22.04844798 57.89704547 23.35708216 57.90496832 24.70537192 C57.92505015 28.32756217 57.88916367 31.94734777 57.84396577 35.56923163 C57.80504352 39.47848148 57.81825576 43.38759934 57.82508624 47.29698849 C57.82980204 54.06670783 57.80160227 60.8356456 57.75094569 67.60516834 C57.67775387 77.39258047 57.65435797 87.17961526 57.64305376 96.9672714 C57.62336347 112.84744131 57.56348956 128.72719479 57.47833025 144.60713863 C57.39569967 160.03159663 57.33200352 175.45594145 57.29375994 190.88057613 C57.29021317 192.30709492 57.29021317 192.30709492 57.28659476 193.76243227 C57.27484929 198.53345585 57.26347595 203.30448022 57.25228763 208.07550514 C57.15900993 247.6465595 56.99310739 287.21684347 56.79937518 326.78755856 C34.02937518 326.78755856 11.25937518 326.78755856 -12.20062482 326.78755856 C-12.42107198 286.28497222 -12.60571523 245.78295153 -12.71127812 205.27993697 C-12.72378522 200.49845951 -12.73672844 195.71698333 -12.74994123 190.93550777 C-12.75387589 189.50764633 -12.75387589 189.50764633 -12.75789003 188.0509392 C-12.80140602 172.63671337 -12.88025289 157.22286039 -12.97215278 141.80885577 C-13.06566115 125.99318685 -13.12121102 110.17771323 -13.14150977 94.36177921 C-13.15523286 84.60187494 -13.1985761 74.84302452 -13.27978949 65.08344465 C-13.33264139 58.3913147 -13.34862809 51.69972969 -13.3356386 45.00740618 C-13.3292313 41.14553413 -13.33906228 37.28550347 -13.39267957 33.42395878 C-13.45042054 29.23479211 -13.43050578 25.04954244 -13.40316999 20.86006832 C-13.4322984 19.64215855 -13.46142682 18.42424877 -13.49143791 17.16943264 C-13.40400489 12.21985368 -13.25744731 9.0647052 -10.03456795 5.16992664 C-3.55349026 -0.34304285 -3.55349026 -0.34304285 0 0 Z " fill="#CA7F2E" transform="translate(343.20062482357025,100.21244144439697)"/>
<path d="M0 0 C2.5546875 1.6796875 2.5546875 1.6796875 4.875 3.875 C5.65617187 4.59429687 6.43734375 5.31359375 7.2421875 6.0546875 C9 8 9 8 9 10 C12.02181414 10.10867663 15.03966327 10.18762754 18.0625 10.25 C18.91005859 10.28351563 19.75761719 10.31703125 20.63085938 10.3515625 C26.76320446 10.44627053 29.8445718 9.2441475 35 6 C39.49094601 5.1262251 43.53755188 5.17960228 47.5625 7.4375 C50.16749224 12.08118183 50.51837803 17.00623835 49.1875 22.125 C48.70161 24.92156548 48.70161 24.92156548 50.08984375 26.53515625 C51.16092316 27.68799745 52.23258353 28.84029905 53.3046875 29.9921875 C61.57757959 39.79003666 61.57516808 52.9216205 62.23046875 65.10546875 C62.74685366 74.66346123 64.23401085 82.75385453 67.90234375 91.58984375 C70.1630413 97.19972286 71.77904775 102.88874873 73.25 108.75 C73.51377441 109.79607422 73.77754883 110.84214844 74.04931641 111.91992188 C75.92660557 119.76885938 76.76829654 126.91865857 76 135 C77.35738281 135.40412109 77.35738281 135.40412109 78.7421875 135.81640625 C81.74773432 136.90834952 83.65211851 137.97020764 86.125 139.9375 C86.76695312 140.44152344 87.40890625 140.94554687 88.0703125 141.46484375 C88.70710937 141.97144531 89.34390625 142.47804688 90 143 C92.55112613 145.02025595 94.35844673 146.14337869 97.4375 147.375 C101.26586064 149.12126976 103.45225905 150.65609 106 154 C106.3125 156.4375 106.3125 156.4375 105 159 C101.64094249 162.07603271 98.33631274 164.55456242 94 166 C92.97544943 167.17009954 92.00253108 168.38597685 91.0625 169.625 C80.74021302 181.72176818 63.19522948 186.16031632 48.25 189.25 C47.01918701 189.50668457 45.78837402 189.76336914 44.52026367 190.02783203 C35.2762067 191.88479118 26.43829744 192.95800757 17 193 C15.0624868 193.03707671 13.12498767 193.07489353 11.1875 193.11328125 C-7.45548001 193.38650731 -25.8610808 192.55763248 -44 188 C-45.0209375 187.77441406 -46.041875 187.54882812 -47.09375 187.31640625 C-61.36389105 184.06149006 -74.74072535 178.57988926 -84.171875 167.09765625 C-85.84579865 165.17693616 -87.4338484 163.83771947 -89.5 162.375 C-92 160 -92 160 -92.8125 156.5 C-92 153 -92 153 -88.9375 150.5625 C-88.29554687 150.17191406 -87.65359375 149.78132812 -86.9921875 149.37890625 C-84.74226007 147.82160354 -83.28339501 146.12137979 -81.5625 144 C-76.17978219 137.62225863 -68.8389302 133.72723237 -61 131 C-57.9375 130.75 -57.9375 130.75 -56 131 C-56.33 128.36 -56.66 125.72 -57 123 C-57.886875 122.79375 -58.77375 122.5875 -59.6875 122.375 C-64.53695714 120.36201779 -66.86003907 117.11707031 -69.3125 112.5625 C-70.91647002 106.58406629 -70.14936152 101.53668912 -67.5390625 96.015625 C-64.64095532 92.22013438 -60.3997229 91.36081173 -56 90 C-55.00226563 89.49146484 -55.00226563 89.49146484 -53.984375 88.97265625 C-51.75417862 87.87950881 -49.6790742 87.37510351 -47.25 86.875 C-46.45078125 86.70742187 -45.6515625 86.53984375 -44.828125 86.3671875 C-43.92320312 86.18542969 -43.92320312 86.18542969 -43 86 C-43.45890625 85.31035156 -43.9178125 84.62070313 -44.390625 83.91015625 C-51.78291993 72.58876338 -58.31055513 60.35039127 -55.46484375 46.37109375 C-54.04107171 40.65266506 -52.19008798 35.95013653 -49 31 C-48.34 31 -47.68 31 -47 31 C-46.75121094 30.4121875 -46.50242188 29.824375 -46.24609375 29.21875 C-41.93917258 21.55000009 -32.95649529 18.4002835 -25 16 C-23.55367187 15.55140625 -23.55367187 15.55140625 -22.078125 15.09375 C-19.72401227 14.37554612 -17.36609139 13.67749254 -15 13 C-14.89558594 12.25234375 -14.79117188 11.5046875 -14.68359375 10.734375 C-13.94651782 7.78607129 -13.07837311 6.47781087 -11.0625 4.25 C-10.53785156 3.65703125 -10.01320313 3.0640625 -9.47265625 2.453125 C-6.53768349 -0.4429224 -3.9991189 -0.38320795 0 0 Z M27 16 C24.47766203 15.85987011 23.23998908 15.11999454 21 14 C0.31811924 13.08317436 -22.97112677 14.37019108 -40.2109375 27.3515625 C-47.31452985 33.89679388 -51.18101118 40.81366145 -52.27734375 50.43359375 C-52.70528888 61.13222189 -49.74412546 70.70225402 -43 79 C-41.68456137 80.35099103 -40.35824882 81.69205669 -39 83 C-38.67 83.99 -38.34 84.98 -38 86 C-37.34 86 -36.68 86 -36 86 C-36 83.69 -36 81.38 -36 79 C-36.99 79 -37.98 79 -39 79 C-39.26683594 78.46375 -39.53367187 77.9275 -39.80859375 77.375 C-40.68852062 75.62091628 -41.57799178 73.87161286 -42.47265625 72.125 C-42.99730469 71.09375 -43.52195312 70.0625 -44.0625 69 C-44.85333984 67.453125 -44.85333984 67.453125 -45.66015625 65.875 C-48.93313497 58.85193197 -49.24401383 50.56959535 -47.2109375 43.1015625 C-46.25051129 40.66017374 -45.19204238 38.33587716 -44 36 C-43.566875 35.071875 -43.13375 34.14375 -42.6875 33.1875 C-39.64009435 29.23715934 -35.7140918 26.57136393 -31 25 C-25.16949321 24.40706711 -21.72624105 25.01872423 -16.890625 28.37890625 C-11.84921987 32.70159867 -8.70352739 37.58442208 -7 44 C-6.15417156 55.41868395 -7.05870471 64.22561097 -13 74 C-13.33 74.99 -13.66 75.98 -14 77 C-17.60132709 79.30484934 -22.00536651 80.53530105 -26 82 C-25.67 83.32 -25.34 84.64 -25 86 C-24.27981689 85.83701416 -23.55963379 85.67402832 -22.81762695 85.50610352 C-20.10597883 85.01903597 -17.66780647 84.88547358 -14.91796875 84.90234375 C-13.98662109 84.90556641 -13.05527344 84.90878906 -12.09570312 84.91210938 C-10.65614258 84.92467773 -10.65614258 84.92467773 -9.1875 84.9375 C-8.20845703 84.94201172 -7.22941406 84.94652344 -6.22070312 84.95117188 C-3.81373889 84.96291316 -1.40690143 84.97933581 1 85 C0.67 85.66 0.34 86.32 0 87 C-2.64860427 87.59355614 -5.29197322 87.74209269 -8 88 C-6.37660195 89.70884005 -4.70680947 91.37446717 -3 93 C-2.34 93 -1.68 93 -1 93 C-1 93.66 -1 94.32 -1 95 C5.44585225 94.16827713 11.26516986 90.89992544 17 88 C16.8125 89.8125 16.8125 89.8125 16 92 C11.79466163 95.09047284 7.21235155 96.28961636 2.25 97.625 C1.48945313 97.8415625 0.72890625 98.058125 -0.0546875 98.28125 C-5.36654194 99.73975919 -10.51366343 100.50819692 -16 101 C-16 103.64 -16 106.28 -16 109 C-16.66 109 -17.32 109 -18 109 C-18 111.97 -18 114.94 -18 118 C-16.9275 118.474375 -15.855 118.94875 -14.75 119.4375 C-14.14671875 119.70433594 -13.5434375 119.97117187 -12.921875 120.24609375 C-2.7989478 124.21707942 7.83160331 121.49385495 18 119 C17.505 120.485 17.505 120.485 17 122 C11.45795194 124.18745738 6.09732317 124.38446641 0.1875 124.375 C-0.69526611 124.37556396 -1.57803223 124.37612793 -2.48754883 124.37670898 C-8.87128012 124.26888962 -16.20128641 123.79871359 -21 119 C-21.45459858 116.34536879 -21.70243238 113.67810862 -22 111 C-23.98 111.495 -23.98 111.495 -26 112 C-26 113.98 -26 115.96 -26 118 C-26.66 118 -27.32 118 -28 118 C-28 116.02 -28 114.04 -28 112 C-29.65 112 -31.3 112 -33 112 C-33 114.31 -33 116.62 -33 119 C-33.99 119 -34.98 119 -36 119 C-36 116.36 -36 113.72 -36 111 C-43.92 110.01 -43.92 110.01 -52 109 C-51.9690625 111.1965625 -51.9690625 111.1965625 -51.9375 113.4375 C-51.91607993 114.95832518 -51.92820036 116.48071962 -52 118 C-52.495 118.495 -52.495 118.495 -53 119 C-53.33520835 126.00585455 -52.46827447 132.81876856 -51.5 139.75 C-51.37625 140.87277344 -51.2525 141.99554688 -51.125 143.15234375 C-50.4151988 148.89511123 -50.4151988 148.89511123 -47.42114258 153.64331055 C-42.20300505 156.62048968 -36.54099138 156.50689639 -30.6875 156.3125 C-29.34848633 156.29799805 -29.34848633 156.29799805 -27.98242188 156.28320312 C-24.36004558 156.22051339 -21.4602583 156.15341943 -18 155 C-17.525625 154.34 -17.05125 153.68 -16.5625 153 C-14.73328752 150.65860802 -13.82036928 150.55596602 -11 150 C-10.88930176 149.30849854 -10.77860352 148.61699707 -10.66455078 147.90454102 C-10.16054072 144.78896164 -9.64296308 141.67578871 -9.125 138.5625 C-8.95097656 137.47388672 -8.77695313 136.38527344 -8.59765625 135.26367188 C-8.42363281 134.22919922 -8.24960938 133.19472656 -8.0703125 132.12890625 C-7.91320801 131.17056885 -7.75610352 130.21223145 -7.59423828 129.22485352 C-7.39813965 128.49065186 -7.20204102 127.7564502 -7 127 C-6.34 126.67 -5.68 126.34 -5 126 C-6.485 137.88 -6.485 137.88 -8 150 C-1.60421456 149.6108327 -1.60421456 149.6108327 0.8515625 147.73828125 C2.26637385 145.59681509 2.78467056 143.68298355 3.375 141.1875 C4.76326189 136.26744232 6.19558444 133.45051644 10 130 C13.3125 129.125 13.3125 129.125 16 129 C16 130.32 16 131.64 16 133 C15.2575 133.061875 14.515 133.12375 13.75 133.1875 C9.93122028 134.31577583 9.10631655 135.60271525 7 139 C5.99051204 141.80686895 5.06542352 144.61507365 4.22265625 147.4765625 C2.6481377 150.72620781 1.28940524 151.56436975 -2 153 C-5.11328125 153.51171875 -5.11328125 153.51171875 -8.3125 153.6875 C-9.38113281 153.75324219 -10.44976562 153.81898438 -11.55078125 153.88671875 C-12.76314453 153.94279297 -12.76314453 153.94279297 -14 154 C-15.12862175 159.36095333 -15.09688221 164.55306686 -15 170 C-13.84239068 170.66193086 -12.6731617 171.30354146 -11.5 171.9375 C-10.8503125 172.29714844 -10.200625 172.65679687 -9.53125 173.02734375 C6.53972669 179.20276535 31.59708888 175.85688713 46.95703125 169.40234375 C60.5466134 163.13962232 64.80684398 155.83035952 70.01953125 141.98046875 C75.641242 124.89136395 69.90381061 107.77747481 63.875 91.6875 C60.37416482 82.31250317 58.19333742 74.00027632 57.78125 63.96484375 C57.74314209 63.04646729 57.70503418 62.12809082 57.66577148 61.18188477 C57.59897976 59.36650776 57.54794065 57.55045303 57.51586914 55.73413086 C57.29135688 47.93803473 55.64311909 40.92676533 52 34 C51.34 34 50.68 34 50 34 C49.01 31.525 49.01 31.525 48 29 C46.02 29.33 44.04 29.66 42 30 C42.495 28.515 42.495 28.515 43 27 C43.06665376 25.60560336 43.08538199 24.20830125 43.0625 22.8125 C43.041875 21.554375 43.02125 20.29625 43 19 C42.45730469 19.42152344 41.91460937 19.84304687 41.35546875 20.27734375 C40.64003906 20.82519531 39.92460937 21.37304688 39.1875 21.9375 C38.47980469 22.48277344 37.77210938 23.02804688 37.04296875 23.58984375 C35 25 35 25 32 26 C32 24.68 32 23.36 32 22 C32.99 21.67 33.98 21.34 35 21 C36.68538601 19.00334686 36.68538601 19.00334686 38 17 C38.804375 17.185625 39.60875 17.37125 40.4375 17.5625 C41.283125 17.706875 42.12875 17.85125 43 18 C44.28322547 16.9404123 44.28322547 16.9404123 44.125 14.5 C44.28322547 12.0595877 44.28322547 12.0595877 43 11 C35.63487005 10.02907891 32.33346293 11.0474987 27 16 Z " fill="#453327" transform="translate(210,169)"/>
<path d="M0 0 C2.27324338 0.97807521 4.08801453 2.22254758 6.0603615 3.71641779 C6.76676775 4.24106623 7.473174 4.76571466 8.2009865 5.30626154 C8.99762713 6.03522638 8.99762713 6.03522638 9.8103615 6.77891779 C9.8103615 7.43891779 9.8103615 8.09891779 9.8103615 8.77891779 C10.4703615 8.77891779 11.1303615 8.77891779 11.8103615 8.77891779 C12.20082205 43.84483357 12.49970297 78.91030405 12.67847211 113.97794197 C12.6997301 118.13279553 12.72173397 122.28764482 12.7441994 126.44249201 C12.74865867 127.26952884 12.75311795 128.09656567 12.75771236 128.94866422 C12.83136849 142.28056347 12.96522418 155.61119638 13.12195904 168.94234833 C13.28182988 182.65623484 13.37554654 196.36946556 13.40986592 210.08424544 C13.43095231 217.77363317 13.48142709 225.46037394 13.60777247 233.14881372 C14.57311473 293.63719207 14.57311473 293.63719207 -3.13142812 313.35619593 C-5.92289731 316.64203761 -7.98615207 320.21357138 -10.08784616 323.96546793 C-10.63323337 324.86312561 -10.63323337 324.86312561 -11.1896385 325.77891779 C-11.5196385 325.77891779 -11.8496385 325.77891779 -12.1896385 325.77891779 C-12.41851697 285.40391621 -12.59472958 245.02899916 -12.70029179 204.65347847 C-12.71279889 199.88702229 -12.72574211 195.12056738 -12.7389549 190.3541131 C-12.74157801 189.40519609 -12.74420111 188.45627907 -12.7469037 187.478607 C-12.7904195 172.11287948 -12.86926626 156.74752601 -12.96116646 141.38202041 C-13.05467537 125.61607211 -13.11022481 109.85031973 -13.13052344 94.08410549 C-13.14424642 84.35490922 -13.18758903 74.62677016 -13.26880316 64.89789933 C-13.32165575 58.22679379 -13.33764161 51.55623492 -13.32465227 44.8849352 C-13.31824507 41.03521246 -13.32807471 37.18733693 -13.38169324 33.3379426 C-13.4394362 29.1619094 -13.41951901 24.98980535 -13.39218366 20.81346369 C-13.42131208 19.59944486 -13.45044049 18.38542603 -13.48045158 17.13461876 C-13.39289093 12.19313338 -13.24278185 9.05049479 -10.02358162 5.16359663 C-3.53361776 -0.35678037 -3.53361776 -0.35678037 0 0 Z " fill="#C5721B" transform="translate(343.18963849544525,100.22108221054077)"/>
<path d="M0 0 C0.33 0 0.66 0 1 0 C1 4.62 1 9.24 1 14 C2.98 14.66 4.96 15.32 7 16 C9.1953125 17.40234375 9.1953125 17.40234375 11.125 18.9375 C11.76695312 19.44152344 12.40890625 19.94554687 13.0703125 20.46484375 C13.70710937 20.97144531 14.34390625 21.47804688 15 22 C17.55112613 24.02025595 19.35844673 25.14337869 22.4375 26.375 C26.26586064 28.12126976 28.45225905 29.65609 31 33 C31.3125 35.4375 31.3125 35.4375 30 38 C26.64094249 41.07603271 23.33631274 43.55456242 19 45 C17.97544943 46.17009954 17.00253108 47.38597685 16.0625 48.625 C5.74021302 60.72176818 -11.80477052 65.16031632 -26.75 68.25 C-27.98081299 68.50668457 -29.21162598 68.76336914 -30.47973633 69.02783203 C-39.7237933 70.88479118 -48.56170256 71.95800757 -58 72 C-59.9375132 72.03707671 -61.87501233 72.07489353 -63.8125 72.11328125 C-82.45548001 72.38650731 -100.8610808 71.55763248 -119 67 C-120.0209375 66.77441406 -121.041875 66.54882812 -122.09375 66.31640625 C-136.36389105 63.06149006 -149.74072535 57.57988926 -159.171875 46.09765625 C-160.84579865 44.17693616 -162.4338484 42.83771947 -164.5 41.375 C-167 39 -167 39 -167.8125 35.5 C-167 32 -167 32 -163.9375 29.5625 C-162.97457031 28.97662109 -162.97457031 28.97662109 -161.9921875 28.37890625 C-159.74226007 26.82160354 -158.28339501 25.12137979 -156.5625 23 C-151.17978219 16.62225863 -143.8389302 12.72723237 -136 10 C-132.9375 9.75 -132.9375 9.75 -131 10 C-130.67 8.68 -130.34 7.36 -130 6 C-129.505 13.425 -129.505 13.425 -129 21 C-130.65 21.99 -132.3 22.98 -134 24 C-136.29109791 25.84102448 -136.29109791 25.84102448 -136.1171875 28.64453125 C-135.58120955 36.62833603 -135.58120955 36.62833603 -131 43 C-131 43.66 -131 44.32 -131 45 C-122.42930672 47.79596017 -113.91047112 46.99039638 -105.00195312 46.5703125 C-95.91806497 46.35759772 -95.91806497 46.35759772 -93.15673828 48.28979492 C-91.87109375 49.90234375 -91.87109375 49.90234375 -90 53 C-77.52143911 60.83714495 -53.70159071 58.04669248 -40 55.46728516 C-31.87152949 53.56812835 -24.12358101 50.29981917 -17 46 C-16.34 46 -15.68 46 -15 46 C-15 45.34 -15 44.68 -15 44 C-14.278125 43.505 -13.55625 43.01 -12.8125 42.5 C-4.26040901 34.89814134 -1.11359125 21.03553448 -0.37207031 10.02758789 C-0.19770785 6.68505956 -0.08014753 3.34615941 0 0 Z " fill="#47693C" transform="translate(285,290)"/>
<path d="M0 0 C1.32 0 2.64 0 4 0 C4.33 8.58 4.66 17.16 5 26 C5.33 23.36 5.66 20.72 6 18 C6.99 16.35 7.98 14.7 9 13 C17.25 13.33 25.5 13.66 34 14 C33.67 14.99 33.34 15.98 33 17 C30.69 17.33 28.38 17.66 26 18 C26.99 18.61875 27.98 19.2375 29 19.875 C29.99 20.57625 30.98 21.2775 32 22 C32 22.66 32 23.32 32 24 C34.12744999 23.21494099 36.25189674 22.4217394 38.375 21.625 C39.55835938 21.18414062 40.74171875 20.74328125 41.9609375 20.2890625 C45.04493446 19.2049658 45.04493446 19.2049658 47 17 C47.99 17 48.98 17 50 17 C49.8125 19.3125 49.8125 19.3125 49 22 C44.84007358 25.11386305 40.18451222 26.33091898 35.25 27.6875 C34.10917969 28.02491211 34.10917969 28.02491211 32.9453125 28.36914062 C27.48184588 29.8924292 22.66831816 30.2088922 17 30 C17 32.64 17 35.28 17 38 C16.34 38 15.68 38 15 38 C15.495 42.455 15.495 42.455 16 47 C25.64444698 50.51467916 34.10670157 50.98042797 44.05078125 48.4453125 C46.40015951 47.90858079 48.59937824 47.84512118 51 48 C50.67 49.32 50.34 50.64 50 52 C44.31343665 53.92373591 39.1745803 54.38515333 33.1875 54.375 C32.30400879 54.37483887 31.42051758 54.37467773 30.51025391 54.37451172 C23.20364029 54.24646739 16.37249717 53.37249717 11 48 C10.73008094 45.31160615 10.91262643 42.70858064 11 40 C10.01 40.33 9.02 40.66 8 41 C7.67 42.98 7.34 44.96 7 47 C6.34 47 5.68 47 5 47 C5 45.02 5 43.04 5 41 C3.35 41 1.7 41 0 41 C0 43.31 0 45.62 0 48 C-0.99 48 -1.98 48 -3 48 C-3 45.36 -3 42.72 -3 40 C-3.65226562 40.02320313 -4.30453125 40.04640625 -4.9765625 40.0703125 C-10.08698903 40.17583753 -14.20425033 40.01926302 -19 38 C-18.87431641 38.95712891 -18.87431641 38.95712891 -18.74609375 39.93359375 C-18.64425781 40.75988281 -18.54242188 41.58617187 -18.4375 42.4375 C-18.33308594 43.26121094 -18.22867188 44.08492188 -18.12109375 44.93359375 C-18.08113281 45.61550781 -18.04117188 46.29742187 -18 47 C-18.33 47.33 -18.66 47.66 -19 48 C-19.2945985 54.39278744 -18.48463841 60.44299182 -17.5 66.75 C-17.21619497 68.59856787 -16.93484796 70.4475152 -16.65625 72.296875 C-16.53056641 73.10479492 -16.40488281 73.91271484 -16.27539062 74.74511719 C-16 77 -16 77 -16 81 C-15.13375 81.28875 -14.2675 81.5775 -13.375 81.875 C-11.31027989 82.56324004 -9.25396621 83.27832397 -7.21484375 84.0390625 C-2.7319813 85.37901896 1.6181833 85.44601958 6.26953125 85.65625 C7.62111328 85.82640625 7.62111328 85.82640625 9 86 C9.33 86.66 9.66 87.32 10 88 C-10.25196415 88.93566569 -10.25196415 88.93566569 -17.375 84.64453125 C-19.32859676 82.66745376 -19.73688533 81.41885699 -20.125 78.6875 C-20.08375 77.470625 -20.0425 76.25375 -20 75 C-22.0162233 75.71563266 -22.0162233 75.71563266 -24 77 C-24.80528889 79.05000871 -24.80528889 79.05000871 -25 81 C-24.34 81 -23.68 81 -23 81 C-21.01152738 87.89337176 -21.01152738 87.89337176 -20.75 90.3125 C-20.10616412 92.26327033 -20.10616412 92.26327033 -17.6640625 93.06640625 C-12.65422749 94.34289939 -7.77645869 94.46547096 -2.625 94.625 C-1.60277344 94.66367187 -0.58054688 94.70234375 0.47265625 94.7421875 C2.98159597 94.83597964 5.49053764 94.92167879 8 95 C7.67 95.66 7.34 96.32 7 97 C4.03 96.505 4.03 96.505 1 96 C1 96.66 1 97.32 1 98 C-18.776 98.648 -18.776 98.648 -24.546875 93.6640625 C-28.3346758 89.30170765 -29.00461042 84.40318127 -29.2734375 78.7578125 C-29 76 -29 76 -26.75 72.75 C-24 71 -24 71 -21 71 C-21.99 64.73 -22.98 58.46 -24 52 C-25.98 51.34 -27.96 50.68 -30 50 C-34.34426375 45.55700298 -36.66468016 41.90610527 -37.375 35.75 C-36.88900566 30.89005663 -36.00324189 26.93317974 -33 23 C-29.8046215 21.11037418 -26.52947101 20.09164728 -23 19 C-22.33484375 18.65066406 -21.6696875 18.30132812 -20.984375 17.94140625 C-18.68542817 16.85076415 -16.77706167 16.59797603 -14.25 16.375 C-13.45078125 16.30023438 -12.6515625 16.22546875 -11.828125 16.1484375 C-10.92320312 16.07496094 -10.92320312 16.07496094 -10 16 C-10 16.99 -10 17.98 -10 19 C-9.34 18.67 -8.68 18.34 -8 18 C-6.00039988 17.960008 -3.99952758 17.95653201 -2 18 C-2 20.97 -2 23.94 -2 27 C-1.34 27 -0.68 27 0 27 C0 18.09 0 9.18 0 0 Z " fill="#3F3124" transform="translate(177,240)"/>
<path d="M0 0 C6.55630931 3.83814653 12.01904732 9.27832771 14.4453125 16.62890625 C16.58550665 28.1391941 15.36601965 39.35288453 8.91015625 49.12890625 C5.90923356 52.51456262 2.9917783 55.14042371 -1.08984375 57.12890625 C-2.40984375 57.12890625 -3.72984375 57.12890625 -5.08984375 57.12890625 C-4.42984375 59.10890625 -3.76984375 61.08890625 -3.08984375 63.12890625 C-4.07984375 63.62390625 -4.07984375 63.62390625 -5.08984375 64.12890625 C-5.47979477 65.99383027 -5.47979477 65.99383027 -5.58984375 68.12890625 C-5.74609375 70.31640625 -5.74609375 70.31640625 -6.08984375 72.12890625 C-7.07984375 72.62390625 -7.07984375 72.62390625 -8.08984375 73.12890625 C-8.08984375 64.21890625 -8.08984375 55.30890625 -8.08984375 46.12890625 C-9.40984375 46.12890625 -10.72984375 46.12890625 -12.08984375 46.12890625 C-12.08984375 55.03890625 -12.08984375 63.94890625 -12.08984375 73.12890625 C-12.74984375 73.12890625 -13.40984375 73.12890625 -14.08984375 73.12890625 C-14.08984375 70.15890625 -14.08984375 67.18890625 -14.08984375 64.12890625 C-16.72984375 64.45890625 -19.36984375 64.78890625 -22.08984375 65.12890625 C-22.08984375 64.13890625 -22.08984375 63.14890625 -22.08984375 62.12890625 C-21.42984375 62.12890625 -20.76984375 62.12890625 -20.08984375 62.12890625 C-20.08984375 61.13890625 -20.08984375 60.14890625 -20.08984375 59.12890625 C-19.42984375 59.12890625 -18.76984375 59.12890625 -18.08984375 59.12890625 C-18.08984375 59.78890625 -18.08984375 60.44890625 -18.08984375 61.12890625 C-17.09984375 61.12890625 -16.10984375 61.12890625 -15.08984375 61.12890625 C-15.08984375 58.81890625 -15.08984375 56.50890625 -15.08984375 54.12890625 C-16.07984375 54.12890625 -17.06984375 54.12890625 -18.08984375 54.12890625 C-25.49394758 45.1261891 -28.72851783 35.89164496 -28.4453125 24.34765625 C-27.6202492 16.87675337 -24.22605299 8.62001864 -18.38671875 3.69140625 C-12.81963336 -0.42543 -6.78517893 -2.82821477 0 0 Z " fill="#3B2D26" transform="translate(189.08984375,193.87109375)"/>
<path d="M0 0 C0.33 0 0.66 0 1 0 C1 4.62 1 9.24 1 14 C2.98 14.66 4.96 15.32 7 16 C9.1953125 17.40234375 9.1953125 17.40234375 11.125 18.9375 C11.76695312 19.44152344 12.40890625 19.94554687 13.0703125 20.46484375 C13.70710937 20.97144531 14.34390625 21.47804688 15 22 C17.55112613 24.02025595 19.35844673 25.14337869 22.4375 26.375 C26.26586064 28.12126976 28.45225905 29.65609 31 33 C31.3125 35.4375 31.3125 35.4375 30 38 C26.64094249 41.07603271 23.33631274 43.55456242 19 45 C17.97544943 46.17009954 17.00253108 47.38597685 16.0625 48.625 C5.74021302 60.72176818 -11.80477052 65.16031632 -26.75 68.25 C-27.98081299 68.50668457 -29.21162598 68.76336914 -30.47973633 69.02783203 C-39.7237933 70.88479118 -48.56170256 71.95800757 -58 72 C-59.9375132 72.03707671 -61.87501233 72.07489353 -63.8125 72.11328125 C-82.45548001 72.38650731 -100.8610808 71.55763248 -119 67 C-120.0209375 66.77441406 -121.041875 66.54882812 -122.09375 66.31640625 C-136.36389105 63.06149006 -149.74072535 57.57988926 -159.171875 46.09765625 C-160.84579865 44.17693616 -162.4338484 42.83771947 -164.5 41.375 C-167 39 -167 39 -167.8125 35.5 C-167 32 -167 32 -163.9375 29.5625 C-162.97457031 28.97662109 -162.97457031 28.97662109 -161.9921875 28.37890625 C-159.74226007 26.82160354 -158.28339501 25.12137979 -156.5625 23 C-151.27276412 16.73242875 -143.80875221 12.49491253 -136 10 C-135.34 10.33 -134.68 10.66 -134 11 C-134.2578125 12.890625 -134.2578125 12.890625 -135 15 C-136.6796875 15.984375 -136.6796875 15.984375 -138.875 16.75 C-145.21371122 19.32414757 -153.07955403 23.22936828 -156.28125 29.515625 C-157.33141857 33.14555549 -157.89919201 36.32210186 -157 40 C-153.87733195 44.79094276 -149.35703768 49.97423849 -143.75 51.6875 C-143.1725 51.790625 -142.595 51.89375 -142 52 C-142 52.66 -142 53.32 -142 54 C-140.989375 54.103125 -139.97875 54.20625 -138.9375 54.3125 C-135.53831364 54.90600873 -133.05390852 55.84977036 -129.9387207 57.22680664 C-126.59218478 58.56145961 -123.13873852 59.30150315 -119.625 60.0625 C-118.94050781 60.22298828 -118.25601563 60.38347656 -117.55078125 60.54882812 C-103.23485172 63.7146065 -88.79402593 64.37701037 -74.1875 64.3125 C-73.34737366 64.31100952 -72.50724731 64.30951904 -71.6416626 64.3079834 C-60.49864893 64.27269486 -49.4623359 63.90223883 -38.375 62.75 C-36.76274536 62.58624878 -36.76274536 62.58624878 -35.11791992 62.41918945 C-27.43262687 61.49452895 -20.32324468 59.46711229 -13 57 C-11.97068359 56.6594458 -10.94136719 56.3188916 -9.88085938 55.96801758 C-0.99310028 52.97991946 6.69103565 48.95047458 12.3125 41.1875 C13.88955968 36.16958284 13.58654088 32.31971698 11.5 27.625 C8.09712484 24.05198108 5.84362118 23.7031063 1 23 C0.34 23.33 -0.32 23.66 -1 24 C-0.67 16.08 -0.34 8.16 0 0 Z " fill="#4B6D3F" transform="translate(285,290)"/>
<path d="M0 0 C5.28 0.66 10.56 1.32 16 2 C16 4.64 16 7.28 16 10 C16.99 10 17.98 10 19 10 C19 7.69 19 5.38 19 3 C20.65 3 22.3 3 24 3 C24 4.98 24 6.96 24 9 C24.66 9 25.32 9 26 9 C26 7.02 26 5.04 26 3 C27.32 2.67 28.64 2.34 30 2 C30.061875 3.258125 30.12375 4.51625 30.1875 5.8125 C30.62056757 9.35561335 30.62056757 9.35561335 33.1875 11.875 C38.49525563 13.99810225 43.14150937 15.27396996 48.875 15.625 C50.02742188 15.69976562 51.17984375 15.77453125 52.3671875 15.8515625 C53.67042969 15.92503906 53.67042969 15.92503906 55 16 C55 16.33 55 16.66 55 17 C52.69 17 50.38 17 48 17 C48 18.65 48 20.3 48 22 C47.67 22 47.34 22 47 22 C47 20.35 47 18.7 47 17 C46.01 17.495 46.01 17.495 45 18 C44.42430933 20.28991046 44.42430933 20.28991046 44.10546875 23.05859375 C43.95400391 24.08404297 43.80253906 25.10949219 43.64648438 26.16601562 C43.3412546 28.34158956 43.04692183 30.51872101 42.76367188 32.69726562 C42.60833984 33.72400391 42.45300781 34.75074219 42.29296875 35.80859375 C42.1643042 36.75532959 42.03563965 37.70206543 41.90307617 38.67749023 C41 41 41 41 38.54418945 42.13696289 C37.70460693 42.42176514 36.86502441 42.70656738 36 43 C35.34 43.99 34.68 44.98 34 46 C29.77170961 47.40943013 25.74281469 47.26451825 21.3125 47.3125 C20.43916016 47.34150391 19.56582031 47.37050781 18.66601562 47.40039062 C13.64211335 47.44916638 9.01455822 47.17407479 4.57885742 44.64331055 C1.04614801 40.96638661 1.03482874 35.6024566 0.5 30.75 C0.3453125 29.64269531 0.190625 28.53539062 0.03125 27.39453125 C-0.74416341 21.57200737 -1.28096442 15.87215638 -1 10 C-0.67 9.67 -0.34 9.34 0 9 C0.07179964 7.48071962 0.08392007 5.95832518 0.0625 4.4375 C0.0315625 2.2409375 0.0315625 2.2409375 0 0 Z " fill="#83623E" transform="translate(158,278)"/>
<path d="M0 0 C-0.0703125 2.24609375 -0.0703125 2.24609375 -1 5 C-3.30474392 6.58266942 -5.3972718 7.82858147 -7.875 9.0625 C-13.8233278 11.99548704 -13.8233278 11.99548704 -18 17 C-18.66721536 19.91440699 -18.66721536 19.91440699 -18 23 C-10.53330208 33.412276 2.9409495 37.33991533 15 40 C17.31657761 40.35313683 19.60197071 40.6087459 21.9375 40.7890625 C24.13282281 41.01358415 26.17075585 41.47221305 28.3125 42 C60.39546671 49.42973966 105.74312122 46.41629316 134.734375 30.4296875 C137.85087976 28.46306553 139.90458879 27.0682807 142 24 C142.69151325 19.69725091 142.51557405 17.79054688 140.125 14.125 C138.1844662 11.96047153 138.1844662 11.96047153 136 11 C136.33 10.01 136.66 9.02 137 8 C140.92888829 8.26787875 142.54876221 8.52437097 145.3125 11.4375 C148.08667657 15.6501385 148.6436184 18.99609358 148 24 C145.20418668 31.79632515 139.13650074 35.59396987 132 39.0625 C99.48727817 53.4837643 54.47855544 54.52101883 20 47 C19.27393555 46.8448291 18.54787109 46.6896582 17.79980469 46.52978516 C9.01849317 44.60261142 0.46766209 42.0150009 -8 39 C-8 38.34 -8 37.68 -8 37 C-8.71671875 36.92652344 -9.4334375 36.85304688 -10.171875 36.77734375 C-13.77214145 35.78776775 -15.53555019 34.10221726 -18.25 31.5625 C-19.12140625 30.75941406 -19.9928125 29.95632813 -20.890625 29.12890625 C-24.14966214 25.83969284 -24.13294356 23.75165279 -24.23046875 19.16796875 C-23.81355392 15.24614283 -22.71077499 12.72152395 -19.93359375 9.90234375 C-7.35387674 0 -7.35387674 0 0 0 Z " fill="#35572D" transform="translate(151,305)"/>
<path d="M0 0 C1.32 0 2.64 0 4 0 C4.33 8.58 4.66 17.16 5 26 C5.66 23.69 6.32 21.38 7 19 C13.76660235 18.618584 19.83645738 18.93713526 26 22 C27.75390625 23.60546875 27.75390625 23.60546875 29 25 C26.87528825 25.3351658 24.75022095 25.66807829 22.625 26 C21.44164062 26.185625 20.25828125 26.37125 19.0390625 26.5625 C16 27 16 27 14 27 C13.67 28.32 13.34 29.64 13 31 C9.33335046 31.02932237 5.6667316 31.04690637 2 31.0625 C0.97003906 31.07087891 -0.05992187 31.07925781 -1.12109375 31.08789062 C-6.85025613 31.10613637 -12.33484101 30.86475384 -18 30 C-18 30.66 -18 31.32 -18 32 C-11.70354997 33.06280504 -5.43733393 33.32111895 0.9375 33.5625 C2.00291016 33.60568359 3.06832031 33.64886719 4.16601562 33.69335938 C6.77723443 33.79874489 9.38853746 33.90087088 12 34 C12 34.66 12 35.32 12 36 C7.90991341 38.0450433 2.62009227 37.18488961 -1.875 37.1875 C-3.52822266 37.20586914 -3.52822266 37.20586914 -5.21484375 37.22460938 C-6.80619141 37.22750977 -6.80619141 37.22750977 -8.4296875 37.23046875 C-9.40147949 37.23457764 -10.37327148 37.23868652 -11.37451172 37.24291992 C-14.09910059 36.99083085 -15.71475683 36.48042882 -18 35 C-19.4783226 32.04335481 -19.06032783 29.25770263 -19 26 C-19.66 26 -20.32 26 -21 26 C-20.979375 27.155 -20.95875 28.31 -20.9375 29.5 C-20.9375 35.43810677 -21.73043714 41.19628408 -23 47 C-25.1875 47.5 -25.1875 47.5 -28 47 C-31.27618728 43.27004717 -33.53282451 38.98320526 -34 34 C-34.33 36.64 -34.66 39.28 -35 42 C-37.53896078 38.19155883 -37.43913585 36.5377371 -37 32 C-36.19101537 28.57337225 -35.14647308 25.81111703 -33 23 C-29.8046215 21.11037418 -26.52947101 20.09164728 -23 19 C-22.33484375 18.65066406 -21.6696875 18.30132812 -20.984375 17.94140625 C-18.68542817 16.85076415 -16.77706167 16.59797603 -14.25 16.375 C-13.45078125 16.30023438 -12.6515625 16.22546875 -11.828125 16.1484375 C-10.92320312 16.07496094 -10.92320312 16.07496094 -10 16 C-10 16.99 -10 17.98 -10 19 C-9.34 18.67 -8.68 18.34 -8 18 C-6.00039988 17.960008 -3.99952758 17.95653201 -2 18 C-2 20.97 -2 23.94 -2 27 C-1.34 27 -0.68 27 0 27 C0 18.09 0 9.18 0 0 Z " fill="#725233" transform="translate(177,240)"/>
<path d="M0 0 C0.66 0 1.32 0 2 0 C1.58994384 8.19033227 1.0946225 16.04043449 -1 24 C3.96911366 22.87302957 3.96911366 22.87302957 8 20 C8.4644109 18.45101973 8.87425222 16.88534168 9.25 15.3125 C10.71331204 10.2460578 12.68301175 6.19891935 17 3 C20.375 2.5625 20.375 2.5625 23 3 C23 4.32 23 5.64 23 7 C22.278125 7.165 21.55625 7.33 20.8125 7.5 C16.71588455 9.68486157 14.99481306 12.88383723 13 17 C12.690625 18.2375 12.38125 19.475 12.0625 20.75 C11 24 11 24 8.625 26.4375 C3.28736274 28.73820571 -1.21295925 28.25720181 -7 28 C-7 33.28 -7 38.56 -7 44 C-1.23539397 46.63473464 -1.23539397 46.63473464 4.4375 47.6875 C6.2009375 47.8421875 6.2009375 47.8421875 8 48 C6.68 48.66 5.36 49.32 4 50 C5.65 50.33 7.3 50.66 9 51 C9 51.33 9 51.66 9 52 C2.91733866 52.38016633 -2.66542926 52.25075405 -8 49 C-8.7425 47.948125 -9.485 46.89625 -10.25 45.8125 C-12.69918127 42.72734425 -12.69918127 42.72734425 -15.97265625 42.61328125 C-19.00302785 42.62391413 -21.98140872 42.74002563 -25 43 C-25 42.34 -25 41.68 -25 41 C-24.030625 41.020625 -23.06125 41.04125 -22.0625 41.0625 C-19.12534105 41.35618499 -19.12534105 41.35618499 -18 40 C-18.9446814 40.02356567 -18.9446814 40.02356567 -19.90844727 40.04760742 C-22.79303825 40.11040232 -25.67748486 40.14913058 -28.5625 40.1875 C-29.55314453 40.21263672 -30.54378906 40.23777344 -31.56445312 40.26367188 C-37.50532277 40.3228832 -41.79236413 39.95759754 -47 37 C-49.23532222 33.40404686 -49.19371768 30.16493007 -49 26 C-49.66 26 -50.32 26 -51 26 C-50.67 24.35 -50.34 22.7 -50 21 C-48.68 20.67 -47.36 20.34 -46 20 C-45.855625 21.2375 -45.71125 22.475 -45.5625 23.75 C-44.89765875 26.23324812 -44.37382259 27.64656773 -42.49609375 29.421875 C-34.83604777 33.55919925 -25.41967675 32.32697774 -17 32 C-21.29 31.67 -25.58 31.34 -30 31 C-30 30.67 -30 30.34 -30 30 C-23.73 29.67 -17.46 29.34 -11 29 C-10.34 27.68 -9.68 26.36 -9 25 C-6.375 24.25 -6.375 24.25 -4 24 C-4.061875 22.989375 -4.12375 21.97875 -4.1875 20.9375 C-4.20334939 16.54721834 -3.42346342 12.35104372 -2.5625 8.0625 C-2.42803467 7.38759521 -2.29356934 6.71269043 -2.1550293 6.01733398 C-1.13480959 1.13480959 -1.13480959 1.13480959 0 0 Z " fill="#493625" transform="translate(203,295)"/>
<path d="M0 0 C2.5546875 1.75 2.5546875 1.75 4.875 4 C6.04675781 5.11375 6.04675781 5.11375 7.2421875 6.25 C7.82226562 6.8275 8.40234375 7.405 9 8 C6.875 10.0625 6.875 10.0625 4 12 C0.6875 11.75 0.6875 11.75 -2 11 C-2 9.68 -2 8.36 -2 7 C-2.99 7 -3.98 7 -5 7 C-5.33 9.31 -5.66 11.62 -6 14 C-3.36 14 -0.72 14 2 14 C2 14.33 2 14.66 2 15 C0.59814453 15.09474609 0.59814453 15.09474609 -0.83203125 15.19140625 C-16.50817249 16.65287182 -34.89232502 21.14553056 -45.375 33.75 C-51.06580825 42.06490317 -52.06656021 51.21845464 -50.53125 60.98046875 C-48.64510122 69.83863175 -44.83738302 76.95154579 -38 83 C-38.33 83.99 -38.66 84.98 -39 86 C-39 85.34 -39 84.68 -39 84 C-39.66 84 -40.32 84 -41 84 C-41 84.99 -41 85.98 -41 87 C-47.3611318 83.8194341 -51.73211357 72.57573099 -54 66 C-57.02562344 54.77925934 -56.67821194 44.10358891 -50.8125 33.8125 C-50.214375 32.884375 -49.61625 31.95625 -49 31 C-48.34 31 -47.68 31 -47 31 C-46.75121094 30.4121875 -46.50242188 29.824375 -46.24609375 29.21875 C-41.93917258 21.55000009 -32.95649529 18.4002835 -25 16 C-23.55367187 15.55140625 -23.55367187 15.55140625 -22.078125 15.09375 C-19.72401227 14.37554612 -17.36609139 13.67749254 -15 13 C-14.89558594 12.25234375 -14.79117188 11.5046875 -14.68359375 10.734375 C-13.94651782 7.78607129 -13.07837311 6.47781087 -11.0625 4.25 C-10.53785156 3.65703125 -10.01320312 3.0640625 -9.47265625 2.453125 C-6.53836848 -0.44224649 -3.99864586 -0.39298731 0 0 Z " fill="#483529" transform="translate(210,169)"/>
<path d="M0 0 C0 0.99 0 1.98 0 3 C-3.61973402 4.31626692 -6.09567131 5 -10 5 C-9.67 5.5775 -9.34 6.155 -9 6.75 C-8 9 -8 9 -8 13 C-6.68 13.33 -5.36 13.66 -4 14 C-5.32 14 -6.64 14 -8 14 C-8 14.66 -8 15.32 -8 16 C-1.70354997 17.06280504 4.56266607 17.32111895 10.9375 17.5625 C12.00291016 17.60568359 13.06832031 17.64886719 14.16601562 17.69335938 C16.77723443 17.79874489 19.38853746 17.90087088 22 18 C22 18.66 22 19.32 22 20 C17.90991341 22.0450433 12.62009227 21.18488961 8.125 21.1875 C6.47177734 21.20586914 6.47177734 21.20586914 4.78515625 21.22460938 C3.19380859 21.22750977 3.19380859 21.22750977 1.5703125 21.23046875 C0.59852051 21.23457764 -0.37327148 21.23868652 -1.37451172 21.24291992 C-4.09910059 20.99083085 -5.71475683 20.48042882 -8 19 C-9.4783226 16.04335481 -9.06032783 13.25770263 -9 10 C-9.66 10 -10.32 10 -11 10 C-10.979375 11.155 -10.95875 12.31 -10.9375 13.5 C-10.9375 19.43810677 -11.73043714 25.19628408 -13 31 C-15.1875 31.5 -15.1875 31.5 -18 31 C-21.27618728 27.27004717 -23.53282451 22.98320526 -24 18 C-24.33 20.64 -24.66 23.28 -25 26 C-27.53896078 22.19155883 -27.43913585 20.5377371 -27 16 C-26.19101537 12.57337225 -25.14647308 9.81111703 -23 7 C-19.8046215 5.11037418 -16.52947101 4.09164728 -13 3 C-11.66617575 2.33431607 -10.3327787 1.66777478 -9 1 C-5.91691204 0.37079838 -3.14767394 0 0 0 Z " fill="#433529" transform="translate(167,256)"/>
<path d="M0 0 C3.99054696 5.98582044 2.95106835 16.228647 1.56494141 23.18261719 C0.39576012 27.59766345 -1.22042162 31.79326027 -3 36 C-3.35707031 36.84691406 -3.71414063 37.69382812 -4.08203125 38.56640625 C-5.82692321 42.34121235 -7.73607697 45.38886158 -11 48 C-11.66 48 -12.32 48 -13 48 C-13 48.66 -13 49.32 -13 50 C-32.16760554 60.37031546 -49.54210928 62.20012541 -71 62 C-71 61.34 -71 60.68 -71 60 C-72.65 60 -74.3 60 -76 60 C-76.33 59.34 -76.66 58.68 -77 58 C-76.25540527 57.98018066 -75.51081055 57.96036133 -74.74365234 57.93994141 C-48.21160084 57.4853807 -48.21160084 57.4853807 -23 50 C-22.14148438 49.64164062 -21.28296875 49.28328125 -20.3984375 48.9140625 C-10.60803435 44.29718342 -7.59170171 34.5753628 -3.98046875 24.98046875 C-1.97632576 18.88819345 -1.69686961 12.89155327 -1.39453125 6.53125 C-1.10301492 1.10301492 -1.10301492 1.10301492 0 0 Z " fill="#3E3225" transform="translate(283,286)"/>
<path d="M0 0 C0.66 0.33 1.32 0.66 2 1 C1.01 2.485 1.01 2.485 0 4 C-0.99 4 -1.98 4 -3 4 C-3.08507812 4.56460938 -3.17015625 5.12921875 -3.2578125 5.7109375 C-4.21655968 8.66791564 -5.81367783 10.30695638 -7.875 12.625 C-13.52887085 19.53528659 -15.61683168 26.45638407 -15.28125 35.36328125 C-14.10383682 46.4015298 -10.43780073 55.53579166 -2 63 C-2.33 63.99 -2.66 64.98 -3 66 C-3 65.34 -3 64.68 -3 64 C-3.66 64 -4.32 64 -5 64 C-5 64.99 -5 65.98 -5 67 C-11.3611318 63.8194341 -15.73211357 52.57573099 -18 46 C-21.02562344 34.77925934 -20.67821194 24.10358891 -14.8125 13.8125 C-14.214375 12.884375 -13.61625 11.95625 -13 11 C-12.34 11 -11.68 11 -11 11 C-10.64808594 10.12601563 -10.64808594 10.12601563 -10.2890625 9.234375 C-8.70847076 6.49468266 -6.90598503 5.13016031 -4.375 3.25 C-3.55773437 2.63640625 -2.74046875 2.0228125 -1.8984375 1.390625 C-0.95871094 0.70226562 -0.95871094 0.70226562 0 0 Z " fill="#463529" transform="translate(174,189)"/>
<path d="M0 0 C1.79244141 0.01740234 1.79244141 0.01740234 3.62109375 0.03515625 C5.41740234 0.04869141 5.41740234 0.04869141 7.25 0.0625 C8.17683594 0.07410156 9.10367188 0.08570313 10.05859375 0.09765625 C11.18359375 7.84765625 11.18359375 7.84765625 10.05859375 10.09765625 C11.37859375 10.09765625 12.69859375 10.09765625 14.05859375 10.09765625 C14.05859375 11.41765625 14.05859375 12.73765625 14.05859375 14.09765625 C12.08203125 15.765625 12.08203125 15.765625 9.43359375 17.28515625 C8.57507813 17.79433594 7.7165625 18.30351562 6.83203125 18.828125 C3.88064741 20.17911056 1.26871583 20.70698157 -1.94140625 21.09765625 C-2.27885979 18.70233869 -2.61148915 16.30651357 -2.94140625 13.91015625 C-3.03679687 13.23662109 -3.1321875 12.56308594 -3.23046875 11.86914062 C-3.7234813 8.25958446 -4.16101186 4.74173684 -3.94140625 1.09765625 C-2.94140625 0.09765625 -2.94140625 0.09765625 0 0 Z " fill="#856540" transform="translate(163.94140625,280.90234375)"/>
<path d="M0 0 C0.144375 1.2375 0.28875 2.475 0.4375 3.75 C1.12736807 6.57445984 1.5591716 7.6882588 3.9609375 9.38671875 C11.10747812 12.5801065 17.58373186 13.1418007 25.3125 13.0625 C26.14845703 13.05798828 26.98441406 13.05347656 27.84570312 13.04882812 C29.89716649 13.03710548 31.94859273 13.01917203 34 13 C33.67 14.65 33.34 16.3 33 18 C27.48514627 19.65726645 21.70378386 19.18440684 16 19.1875 C14.21722656 19.20586914 14.21722656 19.20586914 12.3984375 19.22460938 C10.68527344 19.22750977 10.68527344 19.22750977 8.9375 19.23046875 C7.37322266 19.23663208 7.37322266 19.23663208 5.77734375 19.24291992 C2.96286058 18.99675161 1.3440083 18.54646886 -1 17 C-3.05278746 13.30498258 -3.19417201 10.17469817 -3 6 C-3.66 6 -4.32 6 -5 6 C-4.625 3.5625 -4.625 3.5625 -4 1 C-2 0 -2 0 0 0 Z " fill="#A16D3A" transform="translate(157,315)"/>
<path d="M0 0 C2.875 0.3125 2.875 0.3125 3.875 1.3125 C3.97380797 2.78902664 4.00579245 4.27017236 4.0078125 5.75 C4.00974609 7.09191406 4.00974609 7.09191406 4.01171875 8.4609375 C4.00785156 9.40195312 4.00398437 10.34296875 4 11.3125 C4.00386719 12.25351562 4.00773438 13.19453125 4.01171875 14.1640625 C4.01042969 15.05867188 4.00914062 15.95328125 4.0078125 16.875 C4.00668457 17.70128906 4.00555664 18.52757812 4.00439453 19.37890625 C3.875 21.3125 3.875 21.3125 2.875 22.3125 C0.5625 22.75 0.5625 22.75 -2.125 22.3125 C-5.98389176 18.55790261 -6.41911892 15.51866908 -6.5625 10.1875 C-6.55825105 6.84782338 -6.44685479 4.87975727 -4.79296875 1.96484375 C-3.125 0.3125 -3.125 0.3125 0 0 Z " fill="#9E6B3A" transform="translate(151.125,264.6875)"/>
<path d="M0 0 C0 0.66 0 1.32 0 2 C-0.886875 2.391875 -1.77375 2.78375 -2.6875 3.1875 C-9.64507778 6.99447652 -13.30503353 12.56138277 -16.0859375 19.84375 C-19.0422112 30.05173783 -16.78261157 39.73683654 -12 49 C-10.67713833 50.67499032 -9.34592097 52.34348188 -8 54 C-8 54.66 -8 55.32 -8 56 C-7.01 56 -6.02 56 -5 56 C-5 58.31 -5 60.62 -5 63 C-5.66 63 -6.32 63 -7 63 C-8.02137457 61.34634594 -9.01612294 59.67623498 -10 58 C-10.825 57.01 -11.65 56.02 -12.5 55 C-19.03543215 47.15748141 -21.70849152 37.61941413 -21.26953125 27.42578125 C-20.17403091 17.5662782 -15.9874108 11.01058629 -9 4 C-6.22945615 1.88687334 -3.60469771 0 0 0 Z " fill="#85603D" transform="translate(179,192)"/>
<path d="M0 0 C0.99 0 1.98 0 3 0 C3 1.32 3 2.64 3 4 C6.41642759 4.25015873 6.41642759 4.25015873 10 4 C10.66 3.01 11.32 2.02 12 1 C12.66 1.33 13.32 1.66 14 2 C21.57742379 3.32278303 30.99677647 4.73505255 38 1 C37.7073985 4.51121797 37.1900372 5.80482666 34.6875 8.375 C32 10 32 10 29.8125 9.8125 C28.52847431 9.23690228 27.25858165 8.62929083 26 8 C23.9692523 7.84588894 21.93393579 7.75017547 19.8984375 7.68359375 C18.68671875 7.64169922 17.475 7.59980469 16.2265625 7.55664062 C14.95554688 7.51732422 13.68453125 7.47800781 12.375 7.4375 C11.09625 7.39431641 9.8175 7.35113281 8.5 7.30664062 C5.33344652 7.20030114 2.16681247 7.09827167 -1 7 C-0.67 4.69 -0.34 2.38 0 0 Z " fill="#49372A" transform="translate(205,176)"/>
<path d="M0 0 C0 3.63 0 7.26 0 11 C-11.95384615 11.14230769 -11.95384615 11.14230769 -15 10 C-16.52164099 7.10888212 -17 5.28176588 -17 2 C-11.09956583 0.28351006 -6.14469855 -0.19202183 0 0 Z " fill="#A3703E" transform="translate(174,259)"/>
<path d="M0 0 C7.16171723 -0.30260777 15.12309422 -0.54879349 20.75390625 4.60546875 C21.16511719 5.06566406 21.57632813 5.52585937 22 6 C19.87528825 6.3351658 17.75022095 6.66807829 15.625 7 C14.44164062 7.185625 13.25828125 7.37125 12.0390625 7.5625 C9 8 9 8 7 8 C6.67 8.99 6.34 9.98 6 11 C3.69 11 1.38 11 -1 11 C-0.67 7.37 -0.34 3.74 0 0 Z " fill="#9F6E3F" transform="translate(184,259)"/>
<path d="M0 0 C-0.12890625 1.7890625 -0.12890625 1.7890625 -1 4 C-3.58984375 5.7109375 -3.58984375 5.7109375 -6.9375 7.375 C-12.0740775 9.99409007 -17.00341726 12.76100853 -21.87890625 15.8359375 C-23.93669423 16.96525761 -25.70646029 17.55273375 -28 18 C-28 16.68 -28 15.36 -28 14 C-25.4453125 12.078125 -25.4453125 12.078125 -22.125 10.25 C-20.48917969 9.32960938 -20.48917969 9.32960938 -18.8203125 8.390625 C-16 7 -16 7 -14 7 C-14 6.34 -14 5.68 -14 5 C-12.421924 4.15675328 -10.8372958 3.32576082 -9.25 2.5 C-8.36828125 2.0359375 -7.4865625 1.571875 -6.578125 1.09375 C-4 0 -4 0 0 0 Z " fill="#8C7051" transform="translate(194,295)"/>
<path d="M0 0 C0.99 0 1.98 0 3 0 C1.125 4.75 1.125 4.75 0 7 C-0.12257461 8.95549256 -0.17552388 10.91570618 -0.1875 12.875 C-0.20876953 14.44894531 -0.20876953 14.44894531 -0.23046875 16.0546875 C-0.00504937 18.93547071 0.51035683 20.56240208 2 23 C2.66 23 3.32 23 4 23 C4.33 22.34 4.66 21.68 5 21 C5.66 21 6.32 21 7 21 C6.67 22.32 6.34 23.64 6 25 C2.01350357 25.84562045 -1.93981922 26.62405734 -6 27 C-6.99 26.34 -7.98 25.68 -9 25 C-9 24.01 -9 23.02 -9 22 C-8.34 22 -7.68 22 -7 22 C-7 22.66 -7 23.32 -7 24 C-5.68 24 -4.36 24 -3 24 C-3.03480469 22.68644531 -3.06960937 21.37289062 -3.10546875 20.01953125 C-3.13361466 18.28386699 -3.16091396 16.54818885 -3.1875 14.8125 C-3.21263672 13.94818359 -3.23777344 13.08386719 -3.26367188 12.19335938 C-3.36033901 3.78331874 -3.36033901 3.78331874 0 0 Z " fill="#2F1F19" transform="translate(180,209)"/>
<path d="M0 0 C3.0625 0.25 3.0625 0.25 6.0625 2.25 C6.4609375 4.4921875 6.4609375 4.4921875 6.4375 7.125 C6.44523437 7.98867187 6.45296875 8.85234375 6.4609375 9.7421875 C5.99714141 12.66137468 4.99240171 14.05460916 3.0625 16.25 C2.7325 14.93 2.4025 13.61 2.0625 12.25 C1.155 12.889375 0.2475 13.52875 -0.6875 14.1875 C-3.32971381 15.86428953 -4.9273499 16.78689998 -7.9375 17.25 C-7.9375 13.25 -7.9375 13.25 -5.625 10.5625 C-2.9375 8.25 -2.9375 8.25 0.0625 7.25 C1.0525 7.58 2.0425 7.91 3.0625 8.25 C3.0625 6.6 3.0625 4.95 3.0625 3.25 C0.4225 2.92 -2.2175 2.59 -4.9375 2.25 C-2.9375 0.25 -2.9375 0.25 0 0 Z " fill="#8C643C" transform="translate(249.9375,177.75)"/>
<path d="M0 0 C1.32 0.33 2.64 0.66 4 1 C3.01 1.66 2.02 2.32 1 3 C0.48895078 5.80810144 0.48895078 5.80810144 0.48828125 9.1015625 C0.45283203 10.31328125 0.41738281 11.525 0.38085938 12.7734375 C0.34702148 14.67996094 0.34702148 14.67996094 0.3125 16.625 C0.27833984 17.90375 0.24417969 19.1825 0.20898438 20.5 C0.12627521 23.66657932 0.05719915 26.83287364 0 30 C-0.66 30 -1.32 30 -2 30 C-2 27.03 -2 24.06 -2 21 C-5.96 21.495 -5.96 21.495 -10 22 C-10 21.01 -10 20.02 -10 19 C-9.34 19 -8.68 19 -8 19 C-8 18.01 -8 17.02 -8 16 C-7.34 16 -6.68 16 -6 16 C-6 16.66 -6 17.32 -6 18 C-4.68 18 -3.36 18 -2 18 C-2.10699219 17.03578125 -2.21398437 16.0715625 -2.32421875 15.078125 C-2.44410156 13.81484375 -2.56398437 12.5515625 -2.6875 11.25 C-2.81511719 9.99703125 -2.94273437 8.7440625 -3.07421875 7.453125 C-2.99485632 3.76068358 -2.53835868 2.58403608 0 0 Z " fill="#2F2822" transform="translate(177,237)"/>
<path d="M0 0 C9.57 0.33 19.14 0.66 29 1 C29 1.66 29 2.32 29 3 C26.42105432 4.28947284 24.5447811 4.1294785 21.66015625 4.1328125 C20.59732422 4.13410156 19.53449219 4.13539063 18.43945312 4.13671875 C17.32505859 4.13285156 16.21066406 4.12898438 15.0625 4.125 C13.95197266 4.12886719 12.84144531 4.13273437 11.69726562 4.13671875 C10.10108398 4.13478516 10.10108398 4.13478516 8.47265625 4.1328125 C7.49562744 4.13168457 6.51859863 4.13055664 5.51196289 4.12939453 C3 4 3 4 0 3 C0 2.01 0 1.02 0 0 Z " fill="#90643A" transform="translate(160,273)"/>
<path d="M0 0 C1.65 0 3.3 0 5 0 C4.125 6.875 4.125 6.875 3 8 C1.33382885 8.04063832 -0.33388095 8.042721 -2 8 C-2.33 7.34 -2.66 6.68 -3 6 C-3.66 6.66 -4.32 7.32 -5 8 C-7.625 8.125 -7.625 8.125 -10 8 C-10 6.35 -10 4.7 -10 3 C-7.36 2.67 -4.72 2.34 -2 2 C-2 2.66 -2 3.32 -2 4 C-1.34 4 -0.68 4 0 4 C0 2.68 0 1.36 0 0 Z " fill="#B07668" transform="translate(231,209)"/>
<path d="M0 0 C0.33 0 0.66 0 1 0 C1.83471639 6.46905201 2.13511508 12.85962597 2.1875 19.375 C2.20683594 20.55231689 2.20683594 20.55231689 2.2265625 21.75341797 C2.23325014 25.63977072 2.22303364 28.71377636 0 32 C-2.29474887 24.50382034 -3.15556392 17.38702782 -3.0625 9.5625 C-3.05798828 8.83095703 -3.05347656 8.09941406 -3.04882812 7.34570312 C-3.03718148 5.56376581 -3.01925191 3.78187137 -3 2 C-2.67 2 -2.34 2 -2 2 C-1.34 7.94 -0.68 13.88 0 20 C-0.88898719 13.08565518 -0.95463694 6.90275941 0 0 Z " fill="#543926" transform="translate(270,220)"/>
<path d="M0 0 C0 0.66 0 1.32 0 2 C-0.886875 2.391875 -1.77375 2.78375 -2.6875 3.1875 C-9.73033497 7.04112668 -13.19025526 12.61851274 -16.1875 19.875 C-17.06735902 23.25907314 -17.37207583 26.46554529 -17.55859375 29.94921875 C-18.09739868 32.452516 -19.06880459 33.37779586 -21 35 C-21.68239932 23.12119695 -19.21473902 15.4277251 -11.35546875 6.36328125 C-8.1979874 3.19532733 -4.71739389 0 0 0 Z " fill="#8B623A" transform="translate(179,192)"/>
<path d="M0 0 C-0.33 0.66 -0.66 1.32 -1 2 C-0.34 2.33 0.32 2.66 1 3 C0.030625 3.28875 -0.93875 3.5775 -1.9375 3.875 C-5.10664203 4.64214682 -5.10664203 4.64214682 -6 7 C-6.22622081 8.70363822 -6.40888473 10.41328701 -6.5625 12.125 C-6.64628906 13.03507812 -6.73007813 13.94515625 -6.81640625 14.8828125 C-6.87699219 15.58148438 -6.93757812 16.28015625 -7 17 C-7.33 17 -7.66 17 -8 17 C-8.33 15.35 -8.66 13.7 -9 12 C-9.33 14.64 -9.66 17.28 -10 20 C-12.53896078 16.19155883 -12.43913585 14.5377371 -12 10 C-11.05716131 6.72684978 -9.91302287 3.8287076 -8 1 C-3.09803922 -1.54901961 -3.09803922 -1.54901961 0 0 Z " fill="#4C392C" transform="translate(152,262)"/>
<path d="M0 0 C-0.33 0.66 -0.66 1.32 -1 2 C-0.34 2.33 0.32 2.66 1 3 C-1.99480917 3.8723412 -4.63575911 4.10829766 -7.75 4.0625 C-8.54921875 4.05347656 -9.3484375 4.04445313 -10.171875 4.03515625 C-10.77515625 4.02355469 -11.3784375 4.01195312 -12 4 C-12 6.64 -12 9.28 -12 12 C-14 8.25 -14 8.25 -14 6 C-14.99 5.67 -15.98 5.34 -17 5 C-15.25 1.125 -15.25 1.125 -13 0 C-11.36045464 -0.25310306 -9.71277129 -0.45536859 -8.0625 -0.625 C-6.74958984 -0.76808594 -6.74958984 -0.76808594 -5.41015625 -0.9140625 C-3 -1 -3 -1 0 0 Z " fill="#4C3625" transform="translate(206,266)"/>
<path d="M0 0 C0.99 0 1.98 0 3 0 C3 1.32 3 2.64 3 4 C6.41642759 4.25015873 6.41642759 4.25015873 10 4 C10.66 3.01 11.32 2.02 12 1 C12.99 1.66 13.98 2.32 15 3 C16.9896995 3.39013716 18.99019869 3.73202649 21 4 C21 4.66 21 5.32 21 6 C13.63959083 6.79725902 6.40239645 7.12886183 -1 7 C-0.67 4.69 -0.34 2.38 0 0 Z " fill="#3D2D24" transform="translate(205,176)"/>
<path d="M0 0 C0.66 0 1.32 0 2 0 C1.17909645 16.59089279 1.17909645 16.59089279 -1 23 C-1.66 23.33 -2.32 23.66 -3 24 C-3.22161447 16.14499806 -3.22475427 8.59989051 -1 1 C-0.67 0.67 -0.34 0.34 0 0 Z " fill="#3B2E22" transform="translate(203,295)"/>
<path d="M0 0 C3.58859472 3.58859472 4.49648518 8.87933077 6.0625 13.625 C6.42666016 14.69363281 6.79082031 15.76226562 7.16601562 16.86328125 C9.07850679 22.61136005 10.52434326 27.95550048 11 34 C7.50862955 30.87956508 6.62374815 27.26103516 5.375 22.875 C4.33386181 18.06255184 4.33386181 18.06255184 2 14 C1.60224617 12.40608137 1.25604817 10.79911776 0.9375 9.1875 C0.76089844 8.31480469 0.58429688 7.44210937 0.40234375 6.54296875 C0 4 0 4 0 0 Z " fill="#815E3C" transform="translate(269,250)"/>
<path d="M0 0 C2.04681676 1.83893694 3.39186035 3.72968521 5 6 C2.69 6.33 0.38 6.66 -2 7 C-2 5.68 -2 4.36 -2 3 C-2.99 3 -3.98 3 -5 3 C-5 4.65 -5 6.3 -5 8 C-6.65 8 -8.3 8 -10 8 C-9.64505955 5.37344067 -9.27538036 3.42031739 -7.8125 1.1875 C-4.98977384 -0.66187231 -3.29826647 -0.59368796 0 0 Z " fill="#89613D" transform="translate(210,173)"/>
<path d="M0 0 C4.29 0 8.58 0 13 0 C13 1.65 13 3.3 13 5 C12.67 5.33 12.34 5.66 12 6 C10.0390625 5.94921875 10.0390625 5.94921875 7.625 5.6875 C6.83351562 5.60886719 6.04203125 5.53023438 5.2265625 5.44921875 C3 5 3 5 0 3 C0 2.01 0 1.02 0 0 Z " fill="#A26E3A" transform="translate(161,281)"/>
<path d="M0 0 C0.33 0 0.66 0 1 0 C1.01417969 0.556875 1.02835938 1.11375 1.04296875 1.6875 C1.52523292 9.40372676 4.43179493 14.69229575 10 20 C7.3125 20.375 7.3125 20.375 4 20 C1.21567669 17.88149314 0.28584739 17.11485446 -1 14 C-1.46109099 9.63011491 -1.43782184 5.3719638 -1 1 C-0.67 0.67 -0.34 0.34 0 0 Z " fill="#443326" transform="translate(143,270)"/>
<path d="M0 0 C9.9 0.33 19.8 0.66 30 1 C30 1.66 30 2.32 30 3 C25.75001434 3.02902996 21.50005419 3.04680887 17.25 3.0625 C15.44015625 3.07506836 15.44015625 3.07506836 13.59375 3.08789062 C11.85351562 3.09272461 11.85351562 3.09272461 10.078125 3.09765625 C9.00981445 3.10289307 7.94150391 3.10812988 6.84082031 3.11352539 C4.37610765 3.01503008 2.34754533 2.71565464 0 2 C0 1.34 0 0.68 0 0 Z " fill="#2D2923" transform="translate(159,270)"/>
<path d="M0 0 C1.485 0.99 1.485 0.99 3 2 C3.22265625 4.96875 3.22265625 4.96875 3.0625 8.5 C2.87100068 11.93698864 2.87100068 11.93698864 3 15 C3.66 15.66 4.32 16.32 5 17 C4.34 17.33 3.68 17.66 3 18 C2.61004898 19.86492402 2.61004898 19.86492402 2.5 22 C2.34375 24.1875 2.34375 24.1875 2 26 C1.34 26.33 0.68 26.66 0 27 C0 18.09 0 9.18 0 0 Z " fill="#2C2721" transform="translate(181,240)"/>
<path d="M0 0 C4.875 0.875 4.875 0.875 6 2 C7.68183948 2.23287008 9.3712416 2.41264166 11.0625 2.5625 C12.44115234 2.68818359 12.44115234 2.68818359 13.84765625 2.81640625 C14.91306641 2.90728516 14.91306641 2.90728516 16 3 C15.67 4.32 15.34 5.64 15 7 C10.14755515 7.38819559 6.85985975 7.43747251 2.4375 5.1875 C1.633125 4.465625 0.82875 3.74375 0 3 C0 2.01 0 1.02 0 0 Z " fill="#4B3422" transform="translate(219,195)"/>
<path d="M0 0 C0.99 0 1.98 0 3 0 C2.8125 2.3125 2.8125 2.3125 2 5 C-2.0180958 8.39026833 -6.96154293 9.0669524 -12 10 C-12 7 -12 7 -10 5 C-8.49902237 4.27016684 -6.9751129 3.58660464 -5.4375 2.9375 C-2.49135283 1.81535446 -2.49135283 1.81535446 0 0 Z " fill="#483325" transform="translate(224,257)"/>
<path d="M0 0 C5.75471006 7.05510155 6.43733059 15.62841155 6.625 24.4375 C6.68705868 26.27349726 6.75084511 28.10943697 6.81640625 29.9453125 C6.84492676 30.81446289 6.87344727 31.68361328 6.90283203 32.57910156 C7.08305579 37.06929961 7.50847797 41.53447003 8 46 C7.34 45.67 6.68 45.34 6 45 C4.87497248 37.64687893 4.70402635 30.24285852 4.48242188 22.81640625 C4.25522037 16.97775619 3.42335127 11.67035485 2 6 C1.34 6 0.68 6 0 6 C0 4.02 0 2.04 0 0 Z " fill="#9A6C40" transform="translate(261,203)"/>
<path d="M0 0 C0.99 0 1.98 0 3 0 C2.54593375 7.95398808 1.12888539 15.32797907 -1 23 C-1.33 23 -1.66 23 -2 23 C-2.27990605 15.10042938 -1.51537186 7.7527507 0 0 Z " fill="#94693E" transform="translate(199,295)"/>
<path d="M0 0 C0 0.99 0 1.98 0 3 C-2.08203125 4.640625 -2.08203125 4.640625 -4.8125 6.25 C-6.15248047 7.06210937 -6.15248047 7.06210937 -7.51953125 7.890625 C-10 9 -10 9 -13 8 C-11.78604047 4.35812142 -10.90993923 4.08254007 -7.625 2.3125 C-6.83351562 1.87550781 -6.04203125 1.43851562 -5.2265625 0.98828125 C-3 0 -3 0 0 0 Z " fill="#917454" transform="translate(178,292)"/>
<path d="M0 0 C0.66 0.33 1.32 0.66 2 1 C0.35 2.65 -1.3 4.3 -3 6 C3.6 6.33 10.2 6.66 17 7 C17 7.33 17 7.66 17 8 C16.25314941 7.99476318 15.50629883 7.98952637 14.73681641 7.98413086 C11.36621943 7.96339599 7.99563586 7.95035101 4.625 7.9375 C3.449375 7.92912109 2.27375 7.92074219 1.0625 7.91210938 C-0.05898437 7.90888672 -1.18046875 7.90566406 -2.3359375 7.90234375 C-3.37282715 7.89710693 -4.4097168 7.89187012 -5.47802734 7.88647461 C-7.9959668 7.82859185 -7.9959668 7.82859185 -10 9 C-10 7.68 -10 6.36 -10 5 C-9.16855469 4.70996094 -9.16855469 4.70996094 -8.3203125 4.4140625 C-7.59585938 4.15367187 -6.87140625 3.89328125 -6.125 3.625 C-5.04605469 3.24214844 -5.04605469 3.24214844 -3.9453125 2.8515625 C-1.81842006 2.06122217 -1.81842006 2.06122217 0 0 Z " fill="#8A6039" transform="translate(194,246)"/>
<path d="M0 0 C2.72685567 4.0902835 3.10100048 6.70247711 3 11.5 C2.94252469 17.39121921 3.35487843 23.14782572 4 29 C1.47491599 25.21237399 1.31019349 21.72507659 0.875 17.3125 C0.78863281 16.53455078 0.70226562 15.75660156 0.61328125 14.95507812 C0.08662336 9.94346851 -0.0806117 5.03823103 0 0 Z " fill="#3D2D24" transform="translate(267,214)"/>
<path d="M0 0 C0.66 0.66 1.32 1.32 2 2 C0.86820313 2.49371094 -0.26359375 2.98742187 -1.4296875 3.49609375 C-2.91147042 4.14320148 -4.3932406 4.79033841 -5.875 5.4375 C-6.62136719 5.76298828 -7.36773437 6.08847656 -8.13671875 6.42382812 C-8.85214844 6.73642578 -9.56757813 7.04902344 -10.3046875 7.37109375 C-11.2944458 7.8031311 -11.2944458 7.8031311 -12.30419922 8.24389648 C-13.54991875 8.79932312 -14.78006037 9.39003018 -16 10 C-16 9.01 -16 8.02 -16 7 C-15.01 7 -14.02 7 -13 7 C-12.731875 6.38125 -12.46375 5.7625 -12.1875 5.125 C-11 3 -11 3 -8 1 C-5.28471851 0.33327742 -2.81979275 0.17903446 0 0 Z " fill="#423225" transform="translate(187,186)"/>
<path d="M0 0 C-0.0625 1.75 -0.0625 1.75 -1 4 C-3.92397611 6.34687556 -6.63364045 8.14013944 -10.4375 7.75 C-10.953125 7.5025 -11.46875 7.255 -12 7 C-10.77887968 3.33663903 -9.13279518 2.64957986 -5.88671875 0.76953125 C-4 0 -4 0 0 0 Z " fill="#896E50" transform="translate(191,309)"/>
<path d="M0 0 C0.99 0 1.98 0 3 0 C3.70132913 6.70019789 4.11044961 13.26257354 4 20 C0.36915179 16.36915179 0.13101209 10.55473568 -0.125 5.5625 C-0.125 3.70786523 -0.06864311 1.85336404 0 0 Z " fill="#986A3F" transform="translate(157,288)"/>
<path d="M0 0 C-0.33 1.32 -0.66 2.64 -1 4 C-8.42857143 6.42857143 -8.42857143 6.42857143 -12 5 C-11.34 4.67 -10.68 4.34 -10 4 C-11.32 3.34 -12.64 2.68 -14 2 C-4.58997722 -0.29612756 -4.58997722 -0.29612756 0 0 Z " fill="#503626" transform="translate(228,288)"/>
<path d="M0 0 C0.66 0 1.32 0 2 0 C2 1.65 2 3.3 2 5 C2.66 5 3.32 5 4 5 C4 9.29 4 13.58 4 18 C3.67 17.34 3.34 16.68 3 16 C2.34 16 1.68 16 1 16 C0.67 10.72 0.34 5.44 0 0 Z " fill="#2E3027" transform="translate(154,291)"/>
<path d="M0 0 C1.4540625 0.0309375 1.4540625 0.0309375 2.9375 0.0625 C3.31968767 1.71864657 3.65145102 3.38707024 3.9375 5.0625 C2.9375 6.0625 2.9375 6.0625 -0.125 6.125 C-1.094375 6.104375 -2.06375 6.08375 -3.0625 6.0625 C-3.44468767 4.40635343 -3.77645102 2.73792976 -4.0625 1.0625 C-3.0625 0.0625 -3.0625 0.0625 0 0 Z " fill="#2F1D16" transform="translate(189.0625,201.9375)"/>
<path d="M0 0 C0.99 0.33 1.98 0.66 3 1 C1.6957672 4.9126984 0.21065261 7.37310241 -3 10 C-3.99 10 -4.98 10 -6 10 C-6 6 -6 6 -3.5625 3.3125 C-2.716875 2.549375 -1.87125 1.78625 -1 1 C-0.67 0.67 -0.34 0.34 0 0 Z " fill="#4D3622" transform="translate(248,185)"/>
<path d="M0 0 C8.25 0.33 16.5 0.66 25 1 C24.67 1.99 24.34 2.98 24 4 C22.35 4 20.7 4 19 4 C19 3.67 19 3.34 19 3 C12.4 3 5.8 3 -1 3 C-0.67 2.01 -0.34 1.02 0 0 Z " fill="#4B3320" transform="translate(186,253)"/>
<path d="M0 0 C0.33 0 0.66 0 1 0 C1.50780894 2.20655075 2.00591365 4.41533605 2.5 6.625 C2.7784375 7.85476562 3.056875 9.08453125 3.34375 10.3515625 C3.94091621 13.67152228 4.12409534 16.63908451 4 20 C1.7522025 17.94766315 0.9977758 16.99332739 0 14 C-0.06970052 11.60509014 -0.08448003 9.20832309 -0.0625 6.8125 C-0.05347656 5.54019531 -0.04445312 4.26789063 -0.03515625 2.95703125 C-0.02355469 1.98121094 -0.01195312 1.00539062 0 0 Z " fill="#92693E" transform="translate(159,218)"/>
<path d="M0 0 C0.66 0.33 1.32 0.66 2 1 C1.01 2.485 1.01 2.485 0 4 C-0.99 4 -1.98 4 -3 4 C-3.061875 4.556875 -3.12375 5.11375 -3.1875 5.6875 C-4.33373872 8.94987173 -6.49390197 10.68667874 -9 13 C-9 12.01 -9 11.02 -9 10 C-9.66 9.67 -10.32 9.34 -11 9 C-7.37 6.03 -3.74 3.06 0 0 Z " fill="#4D3C2F" transform="translate(174,189)"/>
<path d="M0 0 C0.66 0 1.32 0 2 0 C2.33 0.99 2.66 1.98 3 3 C5.62723396 4.31361698 7.72610561 4.21253909 10.6640625 4.31640625 C12.34628906 4.37924805 12.34628906 4.37924805 14.0625 4.44335938 C15.238125 4.48267578 16.41375 4.52199219 17.625 4.5625 C18.80835938 4.60568359 19.99171875 4.64886719 21.2109375 4.69335938 C24.14050328 4.79967426 27.07015588 4.90170642 30 5 C30 5.33 30 5.66 30 6 C25.75005737 6.05805933 21.50021676 6.09361654 17.25 6.125 C16.0434375 6.14175781 14.836875 6.15851563 13.59375 6.17578125 C12.43359375 6.18222656 11.2734375 6.18867188 10.078125 6.1953125 C9.00981445 6.20578613 7.94150391 6.21625977 6.84082031 6.22705078 C4.02020895 6.00161519 2.39212537 5.45848994 0 4 C0 2.68 0 1.36 0 0 Z " fill="#98693F" transform="translate(156,328)"/>
<path d="M0 0 C4.51613474 6.02151298 5.24857539 9.66702588 5 17 C4.525625 16.505 4.05125 16.01 3.5625 15.5 C2.24076302 13.88457803 2.24076302 13.88457803 1 14 C0.67 9.38 0.34 4.76 0 0 Z " fill="#4C3B2E" transform="translate(265,203)"/>
<path d="M0 0 C5.94 0.33 11.88 0.66 18 1 C18 1.33 18 1.66 18 2 C15.69 2 13.38 2 11 2 C11 3.65 11 5.3 11 7 C10.67 7 10.34 7 10 7 C10 5.35 10 3.7 10 2 C9.01 2.33 8.02 2.66 7 3 C6.01 2.67 5.02 2.34 4 2 C4 4.97 4 7.94 4 11 C3.67 11 3.34 11 3 11 C2.8046875 9.01432292 2.609375 7.02864583 2.4140625 5.04296875 C2.07334609 2.70011858 2.07334609 2.70011858 0 0 Z " fill="#7E5A38" transform="translate(195,293)"/>
<path d="M0 0 C0.66 0.66 1.32 1.32 2 2 C0.68 2.99 -0.64 3.98 -2 5 C-0.74458443 7.51083114 0.50063488 7.87125446 3 9 C1.35 9.33 -0.3 9.66 -2 10 C-2 9.34 -2 8.68 -2 8 C-2.598125 7.731875 -3.19625 7.46375 -3.8125 7.1875 C-5.97224808 6.01506533 -7.35790256 4.80630718 -9 3 C-5.92382812 2.70703125 -5.92382812 2.70703125 -2.84765625 2.4140625 C-2.23792969 2.27742188 -1.62820312 2.14078125 -1 2 C-0.67 1.34 -0.34 0.68 0 0 Z " fill="#845F3C" transform="translate(211,254)"/>
<path d="M0 0 C0.66 0.33 1.32 0.66 2 1 C1.67 1.99 1.34 2.98 1 4 C0.77281504 6.56634861 0.58391816 9.11678107 0.4375 11.6875 C0.39431641 12.38939453 0.35113281 13.09128906 0.30664062 13.81445312 C0.2008264 15.54275206 0.09993419 17.2713511 0 19 C-0.33 19 -0.66 19 -1 19 C-1 14.71 -1 10.42 -1 6 C-2.65 6 -4.3 6 -6 6 C-5.01 5.67 -4.02 5.34 -3 5 C-1.8499169 3.03327085 -1.8499169 3.03327085 -1 1 C-0.67 0.67 -0.34 0.34 0 0 Z " fill="#523A26" transform="translate(195,319)"/>
<path d="M0 0 C1.2065625 0.0309375 1.2065625 0.0309375 2.4375 0.0625 C3 2 3 2 3.4375 4.0625 C2.4375 5.0625 2.4375 5.0625 -0.625 5.125 C-1.594375 5.104375 -2.56375 5.08375 -3.5625 5.0625 C-3.5625 0.08689024 -3.5625 0.08689024 0 0 Z " fill="#2E1C15" transform="translate(173.5625,201.9375)"/>
<path d="M0 0 C0.99 0 1.98 0 3 0 C3.33 4.29 3.66 8.58 4 13 C3.01 13 2.02 13 1 13 C0.67 8.71 0.34 4.42 0 0 Z " fill="#322C25" transform="translate(157,310)"/>
<path d="M0 0 C0.79921875 0.00902344 1.5984375 0.01804687 2.421875 0.02734375 C3.02515625 0.03894531 3.6284375 0.05054688 4.25 0.0625 C3.92 1.0525 3.59 2.0425 3.25 3.0625 C2.074375 3.041875 0.89875 3.02125 -0.3125 3 C-4.22413467 2.99302739 -7.89497944 3.41999657 -11.75 4.0625 C-8.33415398 0.13427707 -5.03412823 -0.0740313 0 0 Z " fill="#A2774F" transform="translate(169.75,258.9375)"/>
<path d="M0 0 C3 4 3 4 3 6 C5.31 6.33 7.62 6.66 10 7 C10 7.33 10 7.66 10 8 C7.69 8 5.38 8 3 8 C3 9.32 3 10.64 3 12 C2.34 12 1.68 12 1 12 C0.67 8.04 0.34 4.08 0 0 Z " fill="#8B6B48" transform="translate(160,282)"/>
<path d="M0 0 C0.33 0 0.66 0 1 0 C1.97159933 7.68604474 2.10920422 15.25863399 2 23 C1.67 23 1.34 23 1 23 C-0.50242978 15.07809753 -1.3345093 7.98902187 0 0 Z " fill="#534435" transform="translate(270,220)"/>
<path d="M0 0 C1.09658936 3.28976808 0.79953138 4.71303767 0 8 C-0.99 8 -1.98 8 -3 8 C-3 6.68 -3 5.36 -3 4 C-3.99 3.67 -4.98 3.34 -6 3 C-5.67 2.34 -5.34 1.68 -5 1 C-2.4375 0.375 -2.4375 0.375 0 0 Z " fill="#3A2B23" transform="translate(194,324)"/>
<path d="M0 0 C5.28 0.66 10.56 1.32 16 2 C16 2.33 16 2.66 16 3 C14.62714844 3.03867187 14.62714844 3.03867187 13.2265625 3.078125 C11.44378906 3.16320312 11.44378906 3.16320312 9.625 3.25 C8.44164062 3.29640625 7.25828125 3.3428125 6.0390625 3.390625 C2.88708247 3.65648799 2.88708247 3.65648799 1.5859375 6.046875 C1.39257812 6.69140625 1.19921875 7.3359375 1 8 C0.67 5.36 0.34 2.72 0 0 Z " fill="#7B5839" transform="translate(158,278)"/>
<path d="M0 0 C0.33 0 0.66 0 1 0 C1.33 2.97 1.66 5.94 2 9 C2.63808594 9.19335938 3.27617187 9.38671875 3.93359375 9.5859375 C4.75988281 9.84632813 5.58617187 10.10671875 6.4375 10.375 C7.26121094 10.63023437 8.08492187 10.88546875 8.93359375 11.1484375 C11 12 11 12 12 14 C7.43545749 13.45660208 4.0271824 12.20536179 0 10 C0 6.7 0 3.4 0 0 Z " fill="#936740" transform="translate(195,329)"/>
<path d="M0 0 C0.66 0.33 1.32 0.66 2 1 C2.6328125 3.06640625 2.6328125 3.06640625 3.125 5.5625 C3.29257813 6.38878906 3.46015625 7.21507812 3.6328125 8.06640625 C3.75398437 8.70449219 3.87515625 9.34257812 4 10 C2.68 9.67 1.36 9.34 0 9 C-0.87890625 2.84765625 -0.87890625 2.84765625 -1 1 C-0.67 0.67 -0.34 0.34 0 0 Z " fill="#413127" transform="translate(158,231)"/>
<path d="M0 0 C2.36798831 2.87209787 3.64832592 5.36911918 4.6875 8.9375 C4.93886719 9.77152344 5.19023437 10.60554687 5.44921875 11.46484375 C6.0121497 14.05592311 6.09927943 16.35727613 6 19 C4.42445965 16.11371599 3.53723627 13.46657616 2.875 10.25 C2.70742188 9.45078125 2.53984375 8.6515625 2.3671875 7.828125 C2.24601562 7.22484375 2.12484375 6.6215625 2 6 C1.34 6 0.68 6 0 6 C0 4.02 0 2.04 0 0 Z " fill="#7E5C3E" transform="translate(261,203)"/>
<path d="M0 0 C-5.22468764 4.39973696 -9.30713088 4.47617251 -16 4 C-16 3.67 -16 3.34 -16 3 C-13.71068726 2.30364247 -11.4191243 1.61765623 -9.125 0.9375 C-8.47402344 0.73833984 -7.82304687 0.53917969 -7.15234375 0.33398438 C-2.2265625 -1.11328125 -2.2265625 -1.11328125 0 0 Z " fill="#513627" transform="translate(258,339)"/>
<path d="M0 0 C-0.33 1.32 -0.66 2.64 -1 4 C-2.32 4 -3.64 4 -5 4 C-5 3.34 -5 2.68 -5 2 C-8.3 1.67 -11.6 1.34 -15 1 C-15 0.67 -15 0.34 -15 0 C-13.06325815 -0.19517554 -11.12555991 -0.38087873 -9.1875 -0.5625 C-8.10855469 -0.66691406 -7.02960938 -0.77132813 -5.91796875 -0.87890625 C-3 -1 -3 -1 0 0 Z " fill="#90673B" transform="translate(191,329)"/>
<path d="M0 0 C0.33 0 0.66 0 1 0 C1.53251766 1.91345327 2.05059483 3.8309295 2.5625 5.75 C2.85253906 6.81734375 3.14257812 7.8846875 3.44140625 8.984375 C3.97098494 11.84335927 3.98370862 13.31597383 3 16 C-0.38370684 12.61629316 -0.05529986 8.7667907 -0.0625 4.1875 C-0.04655989 2.79160221 -0.02736707 1.39572052 0 0 Z " fill="#4E3E34" transform="translate(281,273)"/>
<path d="M0 0 C0.33 0 0.66 0 1 0 C1 4.62 1 9.24 1 14 C2.32 14.66 3.64 15.32 5 16 C4.01 16.33 3.02 16.66 2 17 C1.34 17.66 0.68 18.32 0 19 C0 12.73 0 6.46 0 0 Z " fill="#726E4A" transform="translate(285,290)"/>
<path d="M0 0 C0.33 0 0.66 0 1 0 C1.33 4.29 1.66 8.58 2 13 C1.01 12.67 0.02 12.34 -1 12 C-1.02687279 10.18757948 -1.04633715 8.37504767 -1.0625 6.5625 C-1.07410156 5.55316406 -1.08570313 4.54382813 -1.09765625 3.50390625 C-1 1 -1 1 0 0 Z " fill="#3E2C20" transform="translate(143,270)"/>
<path d="M0 0 C0.66 0 1.32 0 2 0 C0.10022434 4.43280987 -2.32646327 7.23930149 -6.75 9.25 C-7.4925 9.4975 -8.235 9.745 -9 10 C-9 9.34 -9 8.68 -9 8 C-7 6.66666667 -5 5.33333333 -3 4 C-1.97676564 2.68441297 -0.96873032 1.35622245 0 0 Z " fill="#84603E" transform="translate(271,325)"/>
<path d="M0 0 C4.82360189 -0.19294408 8.49646738 0.24252386 13 2 C13 2.33 13 2.66 13 3 C11.58344207 3.0272415 10.16672955 3.04650467 8.75 3.0625 C7.56664062 3.07990234 7.56664062 3.07990234 6.359375 3.09765625 C4.09308998 3.00385306 2.1711105 2.63241063 0 2 C0 1.34 0 0.68 0 0 Z " fill="#373B2B" transform="translate(199,344)"/>
<path d="M0 0 C0.66 0.33 1.32 0.66 2 1 C-3.10447761 7.52238806 -3.10447761 7.52238806 -7 9 C-7.99 9.495 -7.99 9.495 -9 10 C-7.61811547 6.78956118 -6.07578097 4.95063635 -3.375 2.75 C-2.74335938 2.22921875 -2.11171875 1.7084375 -1.4609375 1.171875 C-0.73777344 0.59179688 -0.73777344 0.59179688 0 0 Z " fill="#5B7047" transform="translate(135,307)"/>
<path d="M0 0 C0 0.66 0 1.32 0 2 C-2.40545638 3.20272819 -3.94996953 3.10071472 -6.625 3.0625 C-7.85089844 3.04896484 -7.85089844 3.04896484 -9.1015625 3.03515625 C-10.04128906 3.01775391 -10.04128906 3.01775391 -11 3 C-10.67 2.34 -10.34 1.68 -10 1 C-6.6322481 0.06451336 -3.4815554 -0.09947301 0 0 Z " fill="#9F7651" transform="translate(189,274)"/>
<path d="M0 0 C-0.33 1.65 -0.66 3.3 -1 5 C-1.99 5.33 -2.98 5.66 -4 6 C-4.99 5.01 -5.98 4.02 -7 3 C-3.375 0 -3.375 0 0 0 Z " fill="#523721" transform="translate(227,257)"/>
<path d="M0 0 C0 0.66 0 1.32 0 2 C-1.64453125 3.2890625 -1.64453125 3.2890625 -3.8125 4.625 C-4.52019531 5.07101562 -5.22789062 5.51703125 -5.95703125 5.9765625 C-8 7 -8 7 -11 7 C-11 6.34 -11 5.68 -11 5 C-9.54462432 4.16151196 -8.08559627 3.32936066 -6.625 2.5 C-5.81289062 2.0359375 -5.00078125 1.571875 -4.1640625 1.09375 C-2 0 -2 0 0 0 Z " fill="#987C5F" transform="translate(178,305)"/>
<path d="M0 0 C1.65 1.32 3.3 2.64 5 4 C4.67 4.99 4.34 5.98 4 7 C4 6.34 4 5.68 4 5 C3.34 5 2.68 5 2 5 C2 5.99 2 6.98 2 8 C0 7 0 7 -0.6875 5.125 C-1 3 -1 3 0 0 Z " fill="#543F2F" transform="translate(167,248)"/>
<path d="M0 0 C1.98 1.65 3.96 3.3 6 5 C4.35 6.32 2.7 7.64 1 9 C0.29925156 5.846632 0 3.27275026 0 0 Z " fill="#48352A" transform="translate(213,172)"/>
<path d="M0 0 C0 0.66 0 1.32 0 2 C-6.625 6 -6.625 6 -10 6 C-10 5.34 -10 4.68 -10 4 C-8.71086513 3.32845067 -7.41859796 2.66291141 -6.125 2 C-5.40570313 1.62875 -4.68640625 1.2575 -3.9453125 0.875 C-2 0 -2 0 0 0 Z " fill="#987B5C" transform="translate(190,311)"/>
<path d="M0 0 C0 0.66 0 1.32 0 2 C-1.36125 2.6496875 -1.36125 2.6496875 -2.75 3.3125 C-5.43218449 4.70517271 -7.66139605 6.11112757 -10 8 C-10.66 7.67 -11.32 7.34 -12 7 C-10.70982586 6.01886757 -9.41780894 5.04015801 -8.125 4.0625 C-7.04605469 3.24458984 -7.04605469 3.24458984 -5.9453125 2.41015625 C-2.62049861 0 -2.62049861 0 0 0 Z " fill="#70543B" transform="translate(179,192)"/>
<path d="M0 0 C1.32 0 2.64 0 4 0 C4 2 4 2 1.6875 4.5625 C-1 7 -1 7 -4 8 C-2.66666667 5.33333333 -1.33333333 2.66666667 0 0 Z " fill="#9D734D" transform="translate(246,183)"/>
<path d="M0 0 C-0.33 1.65 -0.66 3.3 -1 5 C-2.32 5.33 -3.64 5.66 -5 6 C-4.625 3.5625 -4.625 3.5625 -4 1 C-2 0 -2 0 0 0 Z " fill="#92693C" transform="translate(157,315)"/>
<path d="M0 0 C0.66 0.33 1.32 0.66 2 1 C0.68 2.65 -0.64 4.3 -2 6 C-3.65 5.67 -5.3 5.34 -7 5 C-4.88437775 2.67281553 -2.94982021 1.14186589 0 0 Z " fill="#567146" transform="translate(144,302)"/>
<path d="M0 0 C0.99 0 1.98 0 3 0 C3 2.31 3 4.62 3 7 C2.01 7 1.02 7 0 7 C0 4.69 0 2.38 0 0 Z " fill="#63472A" transform="translate(174,281)"/>
<path d="M0 0 C1.98 0 3.96 0 6 0 C6.33 0.99 6.66 1.98 7 3 C4.69 3 2.38 3 0 3 C0 2.01 0 1.02 0 0 Z " fill="#97714E" transform="translate(160,273)"/>
<path d="M0 0 C0.91058531 3.07322544 1.08886184 5.80097361 1 9 C0.34 9 -0.32 9 -1 9 C-1.33 9.66 -1.66 10.32 -2 11 C-1.85892253 9.54119891 -1.71197585 8.08296449 -1.5625 6.625 C-1.48128906 5.81289062 -1.40007812 5.00078125 -1.31640625 4.1640625 C-1 2 -1 2 0 0 Z " fill="#4E3D33" transform="translate(157,207)"/>
<path d="M0 0 C0.66 0.33 1.32 0.66 2 1 C0.7934375 2.0828125 0.7934375 2.0828125 -0.4375 3.1875 C-3.02292072 6.02515689 -3.68042813 7.27166147 -4 11 C-4.33 11 -4.66 11 -5 11 C-5.3125 7.75 -5.3125 7.75 -5 4 C-2.5 1.5625 -2.5 1.5625 0 0 Z " fill="#5B7046" transform="translate(123,318)"/>
<path d="M0 0 C1.10844919 3.32534757 0.84454356 5.62182575 0 9 C-0.66 8.67 -1.32 8.34 -2 8 C-2 5.69 -2 3.38 -2 1 C-1.34 0.67 -0.68 0.34 0 0 Z " fill="#402D21" transform="translate(215,308)"/>
<path d="M0 0 C4.10801767 1.18676066 5.89448334 1.89448334 9 5 C4.545 4.01 4.545 4.01 0 3 C0 2.01 0 1.02 0 0 Z " fill="#906C4B" transform="translate(197,260)"/>
<path d="M0 0 C0.99 0 1.98 0 3 0 C2.67 1.32 2.34 2.64 2 4 C0.68 4.33 -0.64 4.66 -2 5 C-1.125 1.125 -1.125 1.125 0 0 Z " fill="#BD818E" transform="translate(224,211)"/>
<path d="M0 0 C0 3.69418201 -1.28179295 5.77836178 -3 9 C-3.99 9 -4.98 9 -6 9 C-4.68775452 5.06326356 -3.08089673 2.77280706 0 0 Z " fill="#7E5D41" transform="translate(167,200)"/>
<path d="M0 0 C0.33 0 0.66 0 1 0 C1.25 6.625 1.25 6.625 -1 10 C-1.66 10 -2.32 10 -3 10 C-2.01 6.7 -1.02 3.4 0 0 Z " fill="#4B3625" transform="translate(279,311)"/>
<path d="M0 0 C0.99 0.33 1.98 0.66 3 1 C2.67 3.97 2.34 6.94 2 10 C-0.4294516 6.3558226 -0.16179575 4.28758728 0 0 Z " fill="#5C4C3A" transform="translate(140,272)"/>
<path d="M0 0 C1.65 0.99 3.3 1.98 5 3 C4.34 3.66 3.68 4.32 3 5 C1.68 5 0.36 5 -1 5 C-0.67 3.35 -0.34 1.7 0 0 Z " fill="#503828" transform="translate(253,194)"/>
<path d="M0 0 C1.875 0.3125 1.875 0.3125 4 1 C4.66 1.99 5.32 2.98 6 4 C4.02 4 2.04 4 0 4 C0 2.68 0 1.36 0 0 Z " fill="#9B704B" transform="translate(209,175)"/>
<path d="M0 0 C0.99 0.33 1.98 0.66 3 1 C3 1.66 3 2.32 3 3 C4.32 3.66 5.64 4.32 7 5 C4.23723823 4.47731534 1.6739124 3.89130413 -1 3 C-0.67 2.01 -0.34 1.02 0 0 Z " fill="#556039" transform="translate(151,332)"/>
<path d="M0 0 C0.66 0 1.32 0 2 0 C2.33 0.99 2.66 1.98 3 3 C5.50447516 4.21869929 5.50447516 4.21869929 8 5 C5.39417629 5.93065133 4.35801776 6.14917407 1.75 5.0625 C1.1725 4.711875 0.595 4.36125 0 4 C0 2.68 0 1.36 0 0 Z " fill="#88633A" transform="translate(156,328)"/>
<path d="M0 0 C0.99 0 1.98 0 3 0 C2.67 2.31 2.34 4.62 2 7 C1.34 7 0.68 7 0 7 C0 4.69 0 2.38 0 0 Z " fill="#986C43" transform="translate(185,280)"/>
<path d="M0 0 C2.475 0.99 2.475 0.99 5 2 C5 2.66 5 3.32 5 4 C4.34 4 3.68 4 3 4 C3.33 5.32 3.66 6.64 4 8 C3.34 8 2.68 8 2 8 C0.74335022 5.09399739 0 3.20395416 0 0 Z " fill="#926641" transform="translate(157,261)"/>
<path d="" fill="#FFFFFF" transform="translate(0,0)"/>
<path d="" fill="#FFFFFF" transform="translate(0,0)"/>
<path d="" fill="#FFFFFF" transform="translate(0,0)"/>
<path d="" fill="#FFFFFF" transform="translate(0,0)"/>
<path d="" fill="#FFFFFF" transform="translate(0,0)"/>
<path d="" fill="#FFFFFF" transform="translate(0,0)"/>
<path d="" fill="#FFFFFF" transform="translate(0,0)"/>
<path d="" fill="#FFFFFF" transform="translate(0,0)"/>
<path d="" fill="#FFFFFF" transform="translate(0,0)"/>
<path d="" fill="#FFFFFF" transform="translate(0,0)"/>
<path d="" fill="#FFFFFF" transform="translate(0,0)"/>
<path d="" fill="#FFFFFF" transform="translate(0,0)"/>
<path d="" fill="#FFFFFF" transform="translate(0,0)"/>
<path d="" fill="#FFFFFF" transform="translate(0,0)"/>
<path d="" fill="#FFFFFF" transform="translate(0,0)"/>
<path d="" fill="#FFFFFF" transform="translate(0,0)"/>
<path d="" fill="#FFFFFF" transform="translate(0,0)"/>
<path d="" fill="#FFFFFF" transform="translate(0,0)"/>
<path d="" fill="#FFFFFF" transform="translate(0,0)"/>
<path d="" fill="#FFFFFF" transform="translate(0,0)"/>
<path d="" fill="#FFFFFF" transform="translate(0,0)"/>
<path d="" fill="#FFFFFF" transform="translate(0,0)"/>
<path d="" fill="#FFFFFF" transform="translate(0,0)"/>
<path d="" fill="#FFFFFF" transform="translate(0,0)"/>
<path d="" fill="#FFFFFF" transform="translate(0,0)"/>
<path d="" fill="#FFFFFF" transform="translate(0,0)"/>
<path d="" fill="#FFFFFF" transform="translate(0,0)"/>
<path d="" fill="#FFFFFF" transform="translate(0,0)"/>
<path d="" fill="#FFFFFF" transform="translate(0,0)"/>
<path d="" fill="#FFFFFF" transform="translate(0,0)"/>
<path d="" fill="#FFFFFF" transform="translate(0,0)"/>
<path d="" fill="#FFFFFF" transform="translate(0,0)"/>
<path d="" fill="#FFFFFF" transform="translate(0,0)"/>
<path d="" fill="#FFFFFF" transform="translate(0,0)"/>
<path d="" fill="#FFFFFF" transform="translate(0,0)"/>
<path d="" fill="#FFFFFF" transform="translate(0,0)"/>
<path d="" fill="#FFFFFF" transform="translate(0,0)"/>
<path d="" fill="#FFFFFF" transform="translate(0,0)"/>
<path d="" fill="#FFFFFF" transform="translate(0,0)"/>
<path d="" fill="#FFFFFF" transform="translate(0,0)"/>
<path d="" fill="#FFFFFF" transform="translate(0,0)"/>
<path d="" fill="#FFFFFF" transform="translate(0,0)"/>
<path d="" fill="#FFFFFF" transform="translate(0,0)"/>
<path d="" fill="#FFFFFF" transform="translate(0,0)"/>
<path d="" fill="#FFFFFF" transform="translate(0,0)"/>
<path d="" fill="#FFFFFF" transform="translate(0,0)"/>
<path d="" fill="#FFFFFF" transform="translate(0,0)"/>
<path d="" fill="#FFFFFF" transform="translate(0,0)"/>
<path d="" fill="#FFFFFF" transform="translate(0,0)"/>
<path d="" fill="#FFFFFF" transform="translate(0,0)"/>
<path d="" fill="#FFFFFF" transform="translate(0,0)"/>
<path d="" fill="#FFFFFF" transform="translate(0,0)"/>
<path d="" fill="#FFFFFF" transform="translate(0,0)"/>
<path d="" fill="#FFFFFF" transform="translate(0,0)"/>
<path d="" fill="#FFFFFF" transform="translate(0,0)"/>
<path d="" fill="#FFFFFF" transform="translate(0,0)"/>
<path d="" fill="#FFFFFF" transform="translate(0,0)"/>
<path d="" fill="#FFFFFF" transform="translate(0,0)"/>
<path d="" fill="#FFFFFF" transform="translate(0,0)"/>
<path d="" fill="#FFFFFF" transform="translate(0,0)"/>
<path d="" fill="#FFFFFF" transform="translate(0,0)"/>
<path d="" fill="#FFFFFF" transform="translate(0,0)"/>
<path d="" fill="#FFFFFF" transform="translate(0,0)"/>
<path d="" fill="#FFFFFF" transform="translate(0,0)"/>
<path d="" fill="#FFFFFF" transform="translate(0,0)"/>
<path d="" fill="#FFFFFF" transform="translate(0,0)"/>
<path d="" fill="#FFFFFF" transform="translate(0,0)"/>
<path d="" fill="#FFFFFF" transform="translate(0,0)"/>
<path d="" fill="#FFFFFF" transform="translate(0,0)"/>
<path d="" fill="#FFFFFF" transform="translate(0,0)"/>
<path d="" fill="#FFFFFF" transform="translate(0,0)"/>
<path d="" fill="#FFFFFF" transform="translate(0,0)"/>
<path d="" fill="#FFFFFF" transform="translate(0,0)"/>
</svg>
